<svg xmlns="http://www.w3.org/2000/svg" width="300" height="300" fill="none" stroke-width=".75" viewBox="-105 -105 210 210"><rect width="210" height="210" x="-105" y="-105" fill="#fff" stroke="none"/><polyline stroke="#ccc" points="-100 100 -100 -100 0 0 100 -100 100 100"/><polyline stroke="#0df" points="-100 100 -100 0 -75 -75 -25 -25 25 -25 75 -75 100 0 100 100"/><polyline stroke="#f0f" points="-100 100 -100 50 -93.75 -18.75 -81.25 -56.25 -62.5 -62.5 -37.5 -37.5 -12.5 -25 12.5 -25 37.5 -37.5 62.5 -62.5 81.25 -56.25 93.75 -18.75 100 50 100 100"/><polyline stroke="#000" points="-100 100 -100 87.5 -99.61 64.45 -98.83 43.36 -97.66 24.22 -96.09 7.03 -94.14 -8.2 -91.8 -21.48 -89.06 -32.81 -85.94 -42.19 -82.42 -49.61 -78.52 -55.08 -74.22 -58.59 -69.53 -60.16 -64.45 -59.77 -58.98 -57.42 -53.13 -53.13 -46.88 -46.88 -40.63 -41.41 -34.38 -36.72 -28.13 -32.81 -21.88 -29.69 -15.63 -27.34 -9.38 -25.78 -3.13 -25 3.13 -25 9.38 -25.78 15.63 -27.34 21.88 -29.69 28.13 -32.81 34.38 -36.72 40.63 -41.41 46.88 -46.88 53.13 -53.13 58.98 -57.42 64.45 -59.77 69.53 -60.16 74.22 -58.59 78.52 -55.08 82.42 -49.61 85.94 -42.19 89.06 -32.81 91.8 -21.48 94.14 -8.2 96.09 7.03 97.66 24.22 98.83 43.36 99.61 64.45 100 87.5 100 100"/><g fill="#000"><circle cx="-100" cy="100" r="1.25"/><circle cx="-100" cy="87.5" r="1.25"/><circle cx="-99.61" cy="64.45" r="1.25"/><circle cx="-98.83" cy="43.36" r="1.25"/><circle cx="-97.66" cy="24.22" r="1.25"/><circle cx="-96.09" cy="7.03" r="1.25"/><circle cx="-94.14" cy="-8.2" r="1.25"/><circle cx="-91.8" cy="-21.48" r="1.25"/><circle cx="-89.06" cy="-32.81" r="1.25"/><circle cx="-85.94" cy="-42.19" r="1.25"/><circle cx="-82.42" cy="-49.61" r="1.25"/><circle cx="-78.52" cy="-55.08" r="1.25"/><circle cx="-74.22" cy="-58.59" r="1.25"/><circle cx="-69.53" cy="-60.16" r="1.25"/><circle cx="-64.45" cy="-59.77" r="1.25"/><circle cx="-58.98" cy="-57.42" r="1.25"/><circle cx="-53.13" cy="-53.13" r="1.25"/><circle cx="-46.88" cy="-46.88" r="1.25"/><circle cx="-40.63" cy="-41.41" r="1.25"/><circle cx="-34.38" cy="-36.72" r="1.25"/><circle cx="-28.13" cy="-32.81" r="1.25"/><circle cx="-21.88" cy="-29.69" r="1.25"/><circle cx="-15.63" cy="-27.34" r="1.25"/><circle cx="-9.38" cy="-25.78" r="1.25"/><circle cx="-3.13" cy="-25" r="1.25"/><circle cx="3.13" cy="-25" r="1.25"/><circle cx="9.38" cy="-25.78" r="1.25"/><circle cx="15.63" cy="-27.34" r="1.25"/><circle cx="21.88" cy="-29.69" r="1.25"/><circle cx="28.13" cy="-32.81" r="1.25"/><circle cx="34.38" cy="-36.72" r="1.25"/><circle cx="40.63" cy="-41.41" r="1.25"/><circle cx="46.88" cy="-46.88" r="1.25"/><circle cx="53.13" cy="-53.13" r="1.25"/><circle cx="58.98" cy="-57.42" r="1.25"/><circle cx="64.45" cy="-59.77" r="1.25"/><circle cx="69.53" cy="-60.16" r="1.25"/><circle cx="74.22" cy="-58.59" r="1.25"/><circle cx="78.52" cy="-55.08" r="1.25"/><circle cx="82.42" cy="-49.61" r="1.25"/><circle cx="85.94" cy="-42.19" r="1.25"/><circle cx="89.06" cy="-32.81" r="1.25"/><circle cx="91.8" cy="-21.48" r="1.25"/><circle cx="94.14" cy="-8.2" r="1.25"/><circle cx="96.09" cy="7.03" r="1.25"/><circle cx="97.66" cy="24.22" r="1.25"/><circle cx="98.83" cy="43.36" r="1.25"/><circle cx="99.61" cy="64.45" r="1.25"/><circle cx="100" cy="87.5" r="1.25"/><circle cx="100" cy="100" r="1.25"/></g></svg>