<svg xmlns="http://www.w3.org/2000/svg" width="300" height="300" fill="none" stroke-width=".75" viewBox="-105 -105 210 210"><rect width="210" height="210" x="-105" y="-105" fill="#fff" stroke="none"/><polygon stroke="#ccc" points="-100 -100 0 100 100 -100 0 0"/><polygon stroke="#0df" points="-75 -75 -75 -50 -25 50 25 50 75 -50 75 -75 25 -25 -25 -25"/><polygon stroke="#f0f" points="-62.5 -62.5 -75 -68.75 -75 -56.25 -62.5 -25 -37.5 25 -12.5 50 12.5 50 37.5 25 62.5 -25 75 -56.25 75 -68.75 62.5 -62.5 37.5 -37.5 12.5 -25 -12.5 -25 -37.5 -37.5"/><polygon stroke="#000" points="-53.13 -53.13 -58.59 -58.2 -63.28 -62.11 -67.19 -64.84 -70.31 -66.41 -72.66 -66.8 -74.22 -66.02 -75 -64.06 -75 -60.94 -74.22 -56.64 -72.66 -51.17 -70.31 -44.53 -67.19 -36.72 -63.28 -27.73 -58.59 -17.58 -53.13 -6.25 -46.88 6.25 -40.63 17.19 -34.38 26.56 -28.13 34.38 -21.88 40.63 -15.63 45.31 -9.38 48.44 -3.13 50 3.13 50 9.38 48.44 15.63 45.31 21.88 40.63 28.13 34.38 34.38 26.56 40.63 17.19 46.88 6.25 53.13 -6.25 58.59 -17.58 63.28 -27.73 67.19 -36.72 70.31 -44.53 72.66 -51.17 74.22 -56.64 75 -60.94 75 -64.06 74.22 -66.02 72.66 -66.8 70.31 -66.41 67.19 -64.84 63.28 -62.11 58.59 -58.2 53.13 -53.13 46.88 -46.88 40.63 -41.41 34.38 -36.72 28.13 -32.81 21.88 -29.69 15.63 -27.34 9.38 -25.78 3.13 -25 -3.13 -25 -9.38 -25.78 -15.63 -27.34 -21.88 -29.69 -28.13 -32.81 -34.38 -36.72 -40.63 -41.41 -46.88 -46.88"/><g fill="#000"><circle cx="-53.13" cy="-53.13" r="1.25"/><circle cx="-58.59" cy="-58.2" r="1.25"/><circle cx="-63.28" cy="-62.11" r="1.25"/><circle cx="-67.19" cy="-64.84" r="1.25"/><circle cx="-70.31" cy="-66.41" r="1.25"/><circle cx="-72.66" cy="-66.8" r="1.25"/><circle cx="-74.22" cy="-66.02" r="1.25"/><circle cx="-75" cy="-64.06" r="1.25"/><circle cx="-75" cy="-60.94" r="1.25"/><circle cx="-74.22" cy="-56.64" r="1.25"/><circle cx="-72.66" cy="-51.17" r="1.25"/><circle cx="-70.31" cy="-44.53" r="1.25"/><circle cx="-67.19" cy="-36.72" r="1.25"/><circle cx="-63.28" cy="-27.73" r="1.25"/><circle cx="-58.59" cy="-17.58" r="1.25"/><circle cx="-53.13" cy="-6.25" r="1.25"/><circle cx="-46.88" cy="6.25" r="1.25"/><circle cx="-40.63" cy="17.19" r="1.25"/><circle cx="-34.38" cy="26.56" r="1.25"/><circle cx="-28.13" cy="34.38" r="1.25"/><circle cx="-21.88" cy="40.63" r="1.25"/><circle cx="-15.63" cy="45.31" r="1.25"/><circle cx="-9.38" cy="48.44" r="1.25"/><circle cx="-3.13" cy="50" r="1.25"/><circle cx="3.13" cy="50" r="1.25"/><circle cx="9.38" cy="48.44" r="1.25"/><circle cx="15.63" cy="45.31" r="1.25"/><circle cx="21.88" cy="40.63" r="1.25"/><circle cx="28.13" cy="34.38" r="1.25"/><circle cx="34.38" cy="26.56" r="1.25"/><circle cx="40.63" cy="17.19" r="1.25"/><circle cx="46.88" cy="6.25" r="1.25"/><circle cx="53.13" cy="-6.25" r="1.25"/><circle cx="58.59" cy="-17.58" r="1.25"/><circle cx="63.28" cy="-27.73" r="1.25"/><circle cx="67.19" cy="-36.72" r="1.25"/><circle cx="70.31" cy="-44.53" r="1.25"/><circle cx="72.66" cy="-51.17" r="1.25"/><circle cx="74.22" cy="-56.64" r="1.25"/><circle cx="75" cy="-60.94" r="1.25"/><circle cx="75" cy="-64.06" r="1.25"/><circle cx="74.22" cy="-66.02" r="1.25"/><circle cx="72.66" cy="-66.8" r="1.25"/><circle cx="70.31" cy="-66.41" r="1.25"/><circle cx="67.19" cy="-64.84" r="1.25"/><circle cx="63.28" cy="-62.11" r="1.25"/><circle cx="58.59" cy="-58.2" r="1.25"/><circle cx="53.13" cy="-53.13" r="1.25"/><circle cx="46.88" cy="-46.88" r="1.25"/><circle cx="40.63" cy="-41.41" r="1.25"/><circle cx="34.38" cy="-36.72" r="1.25"/><circle cx="28.13" cy="-32.81" r="1.25"/><circle cx="21.88" cy="-29.69" r="1.25"/><circle cx="15.63" cy="-27.34" r="1.25"/><circle cx="9.38" cy="-25.78" r="1.25"/><circle cx="3.13" cy="-25" r="1.25"/><circle cx="-3.13" cy="-25" r="1.25"/><circle cx="-9.38" cy="-25.78" r="1.25"/><circle cx="-15.63" cy="-27.34" r="1.25"/><circle cx="-21.88" cy="-29.69" r="1.25"/><circle cx="-28.13" cy="-32.81" r="1.25"/><circle cx="-34.38" cy="-36.72" r="1.25"/><circle cx="-40.63" cy="-41.41" r="1.25"/><circle cx="-46.88" cy="-46.88" r="1.25"/></g></svg>