<svg xmlns="http://www.w3.org/2000/svg" xmlns:xlink="http://www.w3.org/1999/xlink" width="134pt" height="188pt" viewBox="0 0 134 188"><g id="graph0" class="graph" transform="scale(1 1) rotate(0) translate(4 184)"><title>g</title><polygon fill="#fff" stroke="transparent" points="-4 4 -4 -184 130 -184 130 4 -4 4"/><g id="node1" class="node"><title>b</title><ellipse cx="27" cy="-90" fill="none" stroke="#000" rx="27" ry="18"/><text x="27" y="-85.8" fill="#000" font-family="Times,serif" font-size="14" text-anchor="middle">b</text></g><g id="node4" class="node"><title>a</title><ellipse cx="27" cy="-18" fill="none" stroke="#000" rx="27" ry="18"/><text x="27" y="-13.8" fill="#000" font-family="Times,serif" font-size="14" text-anchor="middle">a</text></g><g id="edge1" class="edge"><title>b-&gt;a</title><path fill="none" stroke="#000" d="M27,-71.8314C27,-64.131 27,-54.9743 27,-46.4166"/><polygon fill="#000" stroke="#000" points="30.5 -46.413 27 -36.413 23.5 -46.413 30.5 -46.413"/></g><g id="node2" class="node"><title>c</title><ellipse cx="27" cy="-162" fill="none" stroke="#000" rx="27" ry="18"/><text x="27" y="-157.8" fill="#000" font-family="Times,serif" font-size="14" text-anchor="middle">c</text></g><g id="edge2" class="edge"><title>c-&gt;b</title><path fill="none" stroke="#000" d="M27,-143.8314C27,-136.131 27,-126.9743 27,-118.4166"/><polygon fill="#000" stroke="#000" points="30.5 -118.413 27 -108.413 23.5 -118.413 30.5 -118.413"/></g><g id="node3" class="node"><title>e</title><ellipse cx="99" cy="-162" fill="none" stroke="#000" rx="27" ry="18"/><text x="99" y="-157.8" fill="#000" font-family="Times,serif" font-size="14" text-anchor="middle">e</text></g><g id="node5" class="node"><title>d</title><ellipse cx="99" cy="-90" fill="none" stroke="#000" rx="27" ry="18"/><text x="99" y="-85.8" fill="#000" font-family="Times,serif" font-size="14" text-anchor="middle">d</text></g><g id="edge3" class="edge"><title>e-&gt;d</title><path fill="none" stroke="#000" d="M99,-143.8314C99,-136.131 99,-126.9743 99,-118.4166"/><polygon fill="#000" stroke="#000" points="102.5 -118.413 99 -108.413 95.5 -118.413 102.5 -118.413"/></g></g></svg>