<svg xmlns="http://www.w3.org/2000/svg" xmlns:xlink="http://www.w3.org/1999/xlink" width="500" height="50" version="1.1"><g><rect width="5" height="50" x="0" y="0" fill="#ffc8d8"/><rect width="5" height="50" x="5" y="0" fill="#c6949f"/><rect width="5" height="50" x="10" y="0" fill="#cf96a2"/><rect width="5" height="50" x="15" y="0" fill="#c48390"/><rect width="5" height="50" x="20" y="0" fill="#ffcbcb"/><rect width="5" height="50" x="25" y="0" fill="#d59998"/><rect width="5" height="50" x="30" y="0" fill="#ffc9c7"/><rect width="5" height="50" x="35" y="0" fill="#edb4b2"/><rect width="5" height="50" x="40" y="0" fill="#ffc6bd"/><rect width="5" height="50" x="45" y="0" fill="#d9a398"/><rect width="5" height="50" x="50" y="0" fill="#c29185"/><rect width="5" height="50" x="55" y="0" fill="#cc9d8f"/><rect width="5" height="50" x="60" y="0" fill="#e8a895"/><rect width="5" height="50" x="65" y="0" fill="#fcc7ae"/><rect width="5" height="50" x="70" y="0" fill="#ba9782"/><rect width="5" height="50" x="75" y="0" fill="#f5ccaa"/><rect width="5" height="50" x="80" y="0" fill="#cba37c"/><rect width="5" height="50" x="85" y="0" fill="#fad7b5"/><rect width="5" height="50" x="90" y="0" fill="#ab9464"/><rect width="5" height="50" x="95" y="0" fill="#d6c399"/><rect width="5" height="50" x="100" y="0" fill="#d7c391"/><rect width="5" height="50" x="105" y="0" fill="#bbaf87"/><rect width="5" height="50" x="110" y="0" fill="#d1c79a"/><rect width="5" height="50" x="115" y="0" fill="#cac59e"/><rect width="5" height="50" x="120" y="0" fill="#cfca9f"/><rect width="5" height="50" x="125" y="0" fill="#bdbc8a"/><rect width="5" height="50" x="130" y="0" fill="#b1b182"/><rect width="5" height="50" x="135" y="0" fill="#b6b88d"/><rect width="5" height="50" x="140" y="0" fill="#9ca17a"/><rect width="5" height="50" x="145" y="0" fill="#8c976e"/><rect width="5" height="50" x="150" y="0" fill="#bdcc9f"/><rect width="5" height="50" x="155" y="0" fill="#a8be88"/><rect width="5" height="50" x="160" y="0" fill="#93a87f"/><rect width="5" height="50" x="165" y="0" fill="#a2bf8e"/><rect width="5" height="50" x="170" y="0" fill="#94b386"/><rect width="5" height="50" x="175" y="0" fill="#afcea1"/><rect width="5" height="50" x="180" y="0" fill="#91aa87"/><rect width="5" height="50" x="185" y="0" fill="#7fa375"/><rect width="5" height="50" x="190" y="0" fill="#b8e2b9"/><rect width="5" height="50" x="195" y="0" fill="#8bbb8e"/><rect width="5" height="50" x="200" y="0" fill="#94b898"/><rect width="5" height="50" x="205" y="0" fill="#90bc97"/><rect width="5" height="50" x="210" y="0" fill="#72a87e"/><rect width="5" height="50" x="215" y="0" fill="#b4e0c0"/><rect width="5" height="50" x="220" y="0" fill="#afdebf"/><rect width="5" height="50" x="225" y="0" fill="#8cccab"/><rect width="5" height="50" x="230" y="0" fill="#65a58c"/><rect width="5" height="50" x="235" y="0" fill="#9ddcc8"/><rect width="5" height="50" x="240" y="0" fill="#9de8d1"/><rect width="5" height="50" x="245" y="0" fill="#62ab98"/><rect width="5" height="50" x="250" y="0" fill="#b3eadb"/><rect width="5" height="50" x="255" y="0" fill="#79c1b2"/><rect width="5" height="50" x="260" y="0" fill="#89d2d3"/><rect width="5" height="50" x="265" y="0" fill="#9feef0"/><rect width="5" height="50" x="270" y="0" fill="#7fc1c5"/><rect width="5" height="50" x="275" y="0" fill="#9fd8dd"/><rect width="5" height="50" x="280" y="0" fill="#559ea8"/><rect width="5" height="50" x="285" y="0" fill="#65b9c8"/><rect width="5" height="50" x="290" y="0" fill="#82cfdd"/><rect width="5" height="50" x="295" y="0" fill="#97e8f8"/><rect width="5" height="50" x="300" y="0" fill="#89d1e1"/><rect width="5" height="50" x="305" y="0" fill="#59acbe"/><rect width="5" height="50" x="310" y="0" fill="#7ebbcd"/><rect width="5" height="50" x="315" y="0" fill="#9bdffb"/><rect width="5" height="50" x="320" y="0" fill="#9bd7f6"/><rect width="5" height="50" x="325" y="0" fill="#b2e7ff"/><rect width="5" height="50" x="330" y="0" fill="#70a0bd"/><rect width="5" height="50" x="335" y="0" fill="#81b7df"/><rect width="5" height="50" x="340" y="0" fill="#b3d8f7"/><rect width="5" height="50" x="345" y="0" fill="#97b7da"/><rect width="5" height="50" x="350" y="0" fill="#93b6de"/><rect width="5" height="50" x="355" y="0" fill="#7ea7d3"/><rect width="5" height="50" x="360" y="0" fill="#a8c6f2"/><rect width="5" height="50" x="365" y="0" fill="#beddff"/><rect width="5" height="50" x="370" y="0" fill="#9fb6e4"/><rect width="5" height="50" x="375" y="0" fill="#b1cbfe"/><rect width="5" height="50" x="380" y="0" fill="#ddf"/><rect width="5" height="50" x="385" y="0" fill="#9a9bc5"/><rect width="5" height="50" x="390" y="0" fill="#d1ceff"/><rect width="5" height="50" x="395" y="0" fill="#cfc9f1"/><rect width="5" height="50" x="400" y="0" fill="#c9c1f6"/><rect width="5" height="50" x="405" y="0" fill="#beaeda"/><rect width="5" height="50" x="410" y="0" fill="#c2adde"/><rect width="5" height="50" x="415" y="0" fill="#ad94c5"/><rect width="5" height="50" x="420" y="0" fill="#b99ccb"/><rect width="5" height="50" x="425" y="0" fill="#c1a3d5"/><rect width="5" height="50" x="430" y="0" fill="#d0aee3"/><rect width="5" height="50" x="435" y="0" fill="#dbb6df"/><rect width="5" height="50" x="440" y="0" fill="#caa2c9"/><rect width="5" height="50" x="445" y="0" fill="#d2abcf"/><rect width="5" height="50" x="450" y="0" fill="#efbee8"/><rect width="5" height="50" x="455" y="0" fill="#ffcef9"/><rect width="5" height="50" x="460" y="0" fill="#fbc3e2"/><rect width="5" height="50" x="465" y="0" fill="#cfa2bb"/><rect width="5" height="50" x="470" y="0" fill="#ffceec"/><rect width="5" height="50" x="475" y="0" fill="#d393b0"/><rect width="5" height="50" x="480" y="0" fill="#ffc5e3"/><rect width="5" height="50" x="485" y="0" fill="#b78497"/><rect width="5" height="50" x="490" y="0" fill="#e5a9be"/><rect width="5" height="50" x="495" y="0" fill="#f7b2c7"/></g></svg>