<svg xmlns="http://www.w3.org/2000/svg" xmlns:xlink="http://www.w3.org/1999/xlink" width="500" height="50" version="1.1"><g><rect width="5" height="50" x="0" y="0" fill="#ff82e5"/><rect width="5" height="50" x="5" y="0" fill="#c3004d"/><rect width="5" height="50" x="10" y="0" fill="#c3003c"/><rect width="5" height="50" x="15" y="0" fill="#ffa2b4"/><rect width="5" height="50" x="20" y="0" fill="#950001"/><rect width="5" height="50" x="25" y="0" fill="#c00017"/><rect width="5" height="50" x="30" y="0" fill="#ff8a8d"/><rect width="5" height="50" x="35" y="0" fill="#ffb291"/><rect width="5" height="50" x="40" y="0" fill="#b20000"/><rect width="5" height="50" x="45" y="0" fill="#800"/><rect width="5" height="50" x="50" y="0" fill="#890000"/><rect width="5" height="50" x="55" y="0" fill="#900000"/><rect width="5" height="50" x="60" y="0" fill="#980000"/><rect width="5" height="50" x="65" y="0" fill="#ffd160"/><rect width="5" height="50" x="70" y="0" fill="#ffd457"/><rect width="5" height="50" x="75" y="0" fill="#ffd24b"/><rect width="5" height="50" x="80" y="0" fill="#ffb00e"/><rect width="5" height="50" x="85" y="0" fill="#8b3200"/><rect width="5" height="50" x="90" y="0" fill="#ffdb2e"/><rect width="5" height="50" x="95" y="0" fill="#7a2a00"/><rect width="5" height="50" x="100" y="0" fill="#ffb700"/><rect width="5" height="50" x="105" y="0" fill="#682900"/><rect width="5" height="50" x="110" y="0" fill="#ffd100"/><rect width="5" height="50" x="115" y="0" fill="#fd0"/><rect width="5" height="50" x="120" y="0" fill="#f4d300"/><rect width="5" height="50" x="125" y="0" fill="#d7d000"/><rect width="5" height="50" x="130" y="0" fill="#4e5300"/><rect width="5" height="50" x="135" y="0" fill="#def000"/><rect width="5" height="50" x="140" y="0" fill="#e7f91b"/><rect width="5" height="50" x="145" y="0" fill="#305600"/><rect width="5" height="50" x="150" y="0" fill="#264c00"/><rect width="5" height="50" x="155" y="0" fill="#234a00"/><rect width="5" height="50" x="160" y="0" fill="#005300"/><rect width="5" height="50" x="165" y="0" fill="#003e00"/><rect width="5" height="50" x="170" y="0" fill="#c6ff36"/><rect width="5" height="50" x="175" y="0" fill="#adfe32"/><rect width="5" height="50" x="180" y="0" fill="#9fff40"/><rect width="5" height="50" x="185" y="0" fill="#003f00"/><rect width="5" height="50" x="190" y="0" fill="#72e500"/><rect width="5" height="50" x="195" y="0" fill="#005a00"/><rect width="5" height="50" x="200" y="0" fill="#76ff76"/><rect width="5" height="50" x="205" y="0" fill="#005b00"/><rect width="5" height="50" x="210" y="0" fill="#006800"/><rect width="5" height="50" x="215" y="0" fill="#00fb71"/><rect width="5" height="50" x="220" y="0" fill="#00ffa2"/><rect width="5" height="50" x="225" y="0" fill="#00ee7d"/><rect width="5" height="50" x="230" y="0" fill="#006722"/><rect width="5" height="50" x="235" y="0" fill="#005019"/><rect width="5" height="50" x="240" y="0" fill="#00ffc5"/><rect width="5" height="50" x="245" y="0" fill="#005729"/><rect width="5" height="50" x="250" y="0" fill="#00ffdb"/><rect width="5" height="50" x="255" y="0" fill="#00f4be"/><rect width="5" height="50" x="260" y="0" fill="#00f0c7"/><rect width="5" height="50" x="265" y="0" fill="#006855"/><rect width="5" height="50" x="270" y="0" fill="#006d7b"/><rect width="5" height="50" x="275" y="0" fill="#005d72"/><rect width="5" height="50" x="280" y="0" fill="#005f79"/><rect width="5" height="50" x="285" y="0" fill="#0ff"/><rect width="5" height="50" x="290" y="0" fill="#00f9ff"/><rect width="5" height="50" x="295" y="0" fill="#0ff"/><rect width="5" height="50" x="300" y="0" fill="#005c83"/><rect width="5" height="50" x="305" y="0" fill="#0ff"/><rect width="5" height="50" x="310" y="0" fill="#0ff"/><rect width="5" height="50" x="315" y="0" fill="#0ff"/><rect width="5" height="50" x="320" y="0" fill="#00f6ff"/><rect width="5" height="50" x="325" y="0" fill="#006abc"/><rect width="5" height="50" x="330" y="0" fill="#00faff"/><rect width="5" height="50" x="335" y="0" fill="#00ecff"/><rect width="5" height="50" x="340" y="0" fill="#0051bf"/><rect width="5" height="50" x="345" y="0" fill="#005dd1"/><rect width="5" height="50" x="350" y="0" fill="#00e0ff"/><rect width="5" height="50" x="355" y="0" fill="#00f7ff"/><rect width="5" height="50" x="360" y="0" fill="#00e8ff"/><rect width="5" height="50" x="365" y="0" fill="#00f8ff"/><rect width="5" height="50" x="370" y="0" fill="#0ff"/><rect width="5" height="50" x="375" y="0" fill="#005bde"/><rect width="5" height="50" x="380" y="0" fill="#005ae2"/><rect width="5" height="50" x="385" y="0" fill="#004ad6"/><rect width="5" height="50" x="390" y="0" fill="#40f1ff"/><rect width="5" height="50" x="395" y="0" fill="#78ffff"/><rect width="5" height="50" x="400" y="0" fill="#9ff4ff"/><rect width="5" height="50" x="405" y="0" fill="#0041e2"/><rect width="5" height="50" x="410" y="0" fill="#002bcc"/><rect width="5" height="50" x="415" y="0" fill="#c3baff"/><rect width="5" height="50" x="420" y="0" fill="#ecc8ff"/><rect width="5" height="50" x="425" y="0" fill="#3222cf"/><rect width="5" height="50" x="430" y="0" fill="#ffb6ff"/><rect width="5" height="50" x="435" y="0" fill="#ff9eff"/><rect width="5" height="50" x="440" y="0" fill="#fbf"/><rect width="5" height="50" x="445" y="0" fill="#ffb0ff"/><rect width="5" height="50" x="450" y="0" fill="#9000b0"/><rect width="5" height="50" x="455" y="0" fill="#ffa7ff"/><rect width="5" height="50" x="460" y="0" fill="#ffb2ff"/><rect width="5" height="50" x="465" y="0" fill="#860095"/><rect width="5" height="50" x="470" y="0" fill="#ff91ff"/><rect width="5" height="50" x="475" y="0" fill="#9c007e"/><rect width="5" height="50" x="480" y="0" fill="#ff76ff"/><rect width="5" height="50" x="485" y="0" fill="#aa0076"/><rect width="5" height="50" x="490" y="0" fill="#ff72ee"/><rect width="5" height="50" x="495" y="0" fill="#ff9cff"/></g></svg>