<svg xmlns="http://www.w3.org/2000/svg" xmlns:xlink="http://www.w3.org/1999/xlink" width="500" height="50" version="1.1"><g><rect width="5" height="50" x="0" y="0" fill="#ffeeb5"/><rect width="5" height="50" x="5" y="0" fill="#ffda8f"/><rect width="5" height="50" x="10" y="0" fill="#f4da8b"/><rect width="5" height="50" x="15" y="0" fill="#ffe49e"/><rect width="5" height="50" x="20" y="0" fill="#ffda88"/><rect width="5" height="50" x="25" y="0" fill="#ffd683"/><rect width="5" height="50" x="30" y="0" fill="#f9d07a"/><rect width="5" height="50" x="35" y="0" fill="#ffc980"/><rect width="5" height="50" x="40" y="0" fill="#ffe580"/><rect width="5" height="50" x="45" y="0" fill="#fff171"/><rect width="5" height="50" x="50" y="0" fill="#ffef77"/><rect width="5" height="50" x="55" y="0" fill="#fed65f"/><rect width="5" height="50" x="60" y="0" fill="#ffea65"/><rect width="5" height="50" x="65" y="0" fill="#ffde5c"/><rect width="5" height="50" x="70" y="0" fill="#fff065"/><rect width="5" height="50" x="75" y="0" fill="#dfd053"/><rect width="5" height="50" x="80" y="0" fill="#f0c059"/><rect width="5" height="50" x="85" y="0" fill="#ffc851"/><rect width="5" height="50" x="90" y="0" fill="#ffc757"/><rect width="5" height="50" x="95" y="0" fill="#ffc951"/><rect width="5" height="50" x="100" y="0" fill="#f4c635"/><rect width="5" height="50" x="105" y="0" fill="#f9c038"/><rect width="5" height="50" x="110" y="0" fill="#9cfff4"/><rect width="5" height="50" x="115" y="0" fill="#8ff"/><rect width="5" height="50" x="120" y="0" fill="#82fbd3"/><rect width="5" height="50" x="125" y="0" fill="#57fffa"/><rect width="5" height="50" x="130" y="0" fill="#3affff"/><rect width="5" height="50" x="135" y="0" fill="#00fffb"/><rect width="5" height="50" x="140" y="0" fill="#0ff"/><rect width="5" height="50" x="145" y="0" fill="#0ff"/><rect width="5" height="50" x="150" y="0" fill="#00f5ff"/><rect width="5" height="50" x="155" y="0" fill="#5ce8c0"/><rect width="5" height="50" x="160" y="0" fill="#43e6d8"/><rect width="5" height="50" x="165" y="0" fill="#0ff"/><rect width="5" height="50" x="170" y="0" fill="#00ffe7"/><rect width="5" height="50" x="175" y="0" fill="#00fff8"/><rect width="5" height="50" x="180" y="0" fill="#00ffe8"/><rect width="5" height="50" x="185" y="0" fill="#00f8ff"/><rect width="5" height="50" x="190" y="0" fill="#0ff"/><rect width="5" height="50" x="195" y="0" fill="#00f5d8"/><rect width="5" height="50" x="200" y="0" fill="#0ff"/><rect width="5" height="50" x="205" y="0" fill="#00f7ff"/><rect width="5" height="50" x="210" y="0" fill="#00ffe8"/><rect width="5" height="50" x="215" y="0" fill="#00eaf0"/><rect width="5" height="50" x="220" y="0" fill="#ffdcdb"/><rect width="5" height="50" x="225" y="0" fill="#ffcccf"/><rect width="5" height="50" x="230" y="0" fill="#ffc8d7"/><rect width="5" height="50" x="235" y="0" fill="#ffd8e1"/><rect width="5" height="50" x="240" y="0" fill="#ffc9ee"/><rect width="5" height="50" x="245" y="0" fill="#ffbac4"/><rect width="5" height="50" x="250" y="0" fill="#ffc5c6"/><rect width="5" height="50" x="255" y="0" fill="#ffb8e3"/><rect width="5" height="50" x="260" y="0" fill="#ffafb8"/><rect width="5" height="50" x="265" y="0" fill="#ffc4d4"/><rect width="5" height="50" x="270" y="0" fill="#ffb8e9"/><rect width="5" height="50" x="275" y="0" fill="#ffa7d4"/><rect width="5" height="50" x="280" y="0" fill="#ffbbdc"/><rect width="5" height="50" x="285" y="0" fill="#ffbec1"/><rect width="5" height="50" x="290" y="0" fill="#ffbfe5"/><rect width="5" height="50" x="295" y="0" fill="#ffa4a6"/><rect width="5" height="50" x="300" y="0" fill="#ff9db3"/><rect width="5" height="50" x="305" y="0" fill="#ffa9aa"/><rect width="5" height="50" x="310" y="0" fill="#ff95e1"/><rect width="5" height="50" x="315" y="0" fill="#ff96a9"/><rect width="5" height="50" x="320" y="0" fill="#ff8fb7"/><rect width="5" height="50" x="325" y="0" fill="#ff9497"/><rect width="5" height="50" x="330" y="0" fill="#454545"/><rect width="5" height="50" x="335" y="0" fill="#424242"/><rect width="5" height="50" x="340" y="0" fill="#404040"/><rect width="5" height="50" x="345" y="0" fill="#3f3f3f"/><rect width="5" height="50" x="350" y="0" fill="#3b3b3b"/><rect width="5" height="50" x="355" y="0" fill="#333"/><rect width="5" height="50" x="360" y="0" fill="#272727"/><rect width="5" height="50" x="365" y="0" fill="#222"/><rect width="5" height="50" x="370" y="0" fill="#181818"/><rect width="5" height="50" x="375" y="0" fill="#171717"/><rect width="5" height="50" x="380" y="0" fill="#111"/><rect width="5" height="50" x="385" y="0" fill="#fbfbfb"/><rect width="5" height="50" x="390" y="0" fill="#f7f7f7"/><rect width="5" height="50" x="395" y="0" fill="#f6f6f6"/><rect width="5" height="50" x="400" y="0" fill="#f4f4f4"/><rect width="5" height="50" x="405" y="0" fill="#ddd"/><rect width="5" height="50" x="410" y="0" fill="#2f2f2f"/><rect width="5" height="50" x="415" y="0" fill="#2b2b2b"/><rect width="5" height="50" x="420" y="0" fill="#272727"/><rect width="5" height="50" x="425" y="0" fill="#262626"/><rect width="5" height="50" x="430" y="0" fill="#191919"/><rect width="5" height="50" x="435" y="0" fill="#191919"/><rect width="5" height="50" x="440" y="0" fill="#ececec"/><rect width="5" height="50" x="445" y="0" fill="#ececec"/><rect width="5" height="50" x="450" y="0" fill="#ebebeb"/><rect width="5" height="50" x="455" y="0" fill="#e8e8e8"/><rect width="5" height="50" x="460" y="0" fill="#e6e6e6"/><rect width="5" height="50" x="465" y="0" fill="#e5e5e5"/><rect width="5" height="50" x="470" y="0" fill="#e2e2e2"/><rect width="5" height="50" x="475" y="0" fill="#e1e1e1"/><rect width="5" height="50" x="480" y="0" fill="#e0e0e0"/><rect width="5" height="50" x="485" y="0" fill="#dfdfdf"/><rect width="5" height="50" x="490" y="0" fill="#d5d5d5"/></g></svg>