<svg xmlns="http://www.w3.org/2000/svg" xmlns:xlink="http://www.w3.org/1999/xlink" width="500" height="50" version="1.1"><g><rect width="5" height="50" x="0" y="0" fill="#ff0062"/><rect width="5" height="50" x="5" y="0" fill="#ffda0b"/><rect width="5" height="50" x="10" y="0" fill="#00fcf4"/><rect width="5" height="50" x="15" y="0" fill="#ffa600"/><rect width="5" height="50" x="20" y="0" fill="#00d5d1"/><rect width="5" height="50" x="25" y="0" fill="#d4d4d4"/><rect width="5" height="50" x="30" y="0" fill="#d5cc00"/><rect width="5" height="50" x="35" y="0" fill="#e3ab00"/><rect width="5" height="50" x="40" y="0" fill="#bbb"/><rect width="5" height="50" x="45" y="0" fill="#a1a1a1"/><rect width="5" height="50" x="50" y="0" fill="#ff0092"/><rect width="5" height="50" x="55" y="0" fill="#e6005c"/><rect width="5" height="50" x="60" y="0" fill="#a17e00"/><rect width="5" height="50" x="65" y="0" fill="#da0064"/><rect width="5" height="50" x="70" y="0" fill="#ddd"/><rect width="5" height="50" x="75" y="0" fill="#b4a500"/><rect width="5" height="50" x="80" y="0" fill="#c2c2c2"/><rect width="5" height="50" x="85" y="0" fill="#1b1b1b"/><rect width="5" height="50" x="90" y="0" fill="#00dbc3"/><rect width="5" height="50" x="95" y="0" fill="#878787"/><rect width="5" height="50" x="100" y="0" fill="#f2f2f2"/><rect width="5" height="50" x="105" y="0" fill="#2b2b2b"/><rect width="5" height="50" x="110" y="0" fill="#ffa7d4"/><rect width="5" height="50" x="115" y="0" fill="#6b6b6b"/><rect width="5" height="50" x="120" y="0" fill="#cecece"/><rect width="5" height="50" x="125" y="0" fill="#ff9cb1"/><rect width="5" height="50" x="130" y="0" fill="#ff6381"/><rect width="5" height="50" x="135" y="0" fill="#00fff9"/><rect width="5" height="50" x="140" y="0" fill="#00c891"/><rect width="5" height="50" x="145" y="0" fill="#d4d4d4"/><rect width="5" height="50" x="150" y="0" fill="#3c3c3c"/><rect width="5" height="50" x="155" y="0" fill="#ffb500"/><rect width="5" height="50" x="160" y="0" fill="#606060"/><rect width="5" height="50" x="165" y="0" fill="#e6e6e6"/><rect width="5" height="50" x="170" y="0" fill="#ededed"/><rect width="5" height="50" x="175" y="0" fill="#4a4a4a"/><rect width="5" height="50" x="180" y="0" fill="#eaeaea"/><rect width="5" height="50" x="185" y="0" fill="#484848"/><rect width="5" height="50" x="190" y="0" fill="#007b56"/><rect width="5" height="50" x="195" y="0" fill="#333"/><rect width="5" height="50" x="200" y="0" fill="#946000"/><rect width="5" height="50" x="205" y="0" fill="#414141"/><rect width="5" height="50" x="210" y="0" fill="#00cbae"/><rect width="5" height="50" x="215" y="0" fill="#e1e1e1"/><rect width="5" height="50" x="220" y="0" fill="#0ff"/><rect width="5" height="50" x="225" y="0" fill="#ffda34"/><rect width="5" height="50" x="230" y="0" fill="#a59800"/><rect width="5" height="50" x="235" y="0" fill="#955400"/><rect width="5" height="50" x="240" y="0" fill="#ffd251"/><rect width="5" height="50" x="245" y="0" fill="#929292"/><rect width="5" height="50" x="250" y="0" fill="#ffd32c"/><rect width="5" height="50" x="255" y="0" fill="#0ff"/><rect width="5" height="50" x="260" y="0" fill="#ff7dea"/><rect width="5" height="50" x="265" y="0" fill="#b1b1b1"/><rect width="5" height="50" x="270" y="0" fill="#979797"/><rect width="5" height="50" x="275" y="0" fill="#0ff"/><rect width="5" height="50" x="280" y="0" fill="#ff66b2"/><rect width="5" height="50" x="285" y="0" fill="#d5a700"/><rect width="5" height="50" x="290" y="0" fill="#e7e7e7"/><rect width="5" height="50" x="295" y="0" fill="#00b5a2"/><rect width="5" height="50" x="300" y="0" fill="#181818"/><rect width="5" height="50" x="305" y="0" fill="#00fcc6"/><rect width="5" height="50" x="310" y="0" fill="#404040"/><rect width="5" height="50" x="315" y="0" fill="#00deab"/><rect width="5" height="50" x="320" y="0" fill="#ff4999"/><rect width="5" height="50" x="325" y="0" fill="#050505"/><rect width="5" height="50" x="330" y="0" fill="#ff6c9a"/><rect width="5" height="50" x="335" y="0" fill="#3b3b3b"/><rect width="5" height="50" x="340" y="0" fill="#ff0074"/><rect width="5" height="50" x="345" y="0" fill="#272727"/><rect width="5" height="50" x="350" y="0" fill="#ff75de"/><rect width="5" height="50" x="355" y="0" fill="#a5a5a5"/><rect width="5" height="50" x="360" y="0" fill="#00afc9"/><rect width="5" height="50" x="365" y="0" fill="#3c3c3c"/><rect width="5" height="50" x="370" y="0" fill="#b84d00"/><rect width="5" height="50" x="375" y="0" fill="#ff61ac"/><rect width="5" height="50" x="380" y="0" fill="#0ff"/><rect width="5" height="50" x="385" y="0" fill="#242424"/><rect width="5" height="50" x="390" y="0" fill="#ff9c00"/><rect width="5" height="50" x="395" y="0" fill="#444"/><rect width="5" height="50" x="400" y="0" fill="#00b4ad"/><rect width="5" height="50" x="405" y="0" fill="#ff9dff"/><rect width="5" height="50" x="410" y="0" fill="#ffd425"/><rect width="5" height="50" x="415" y="0" fill="#00fff8"/><rect width="5" height="50" x="420" y="0" fill="#ffbb1a"/><rect width="5" height="50" x="425" y="0" fill="#343434"/><rect width="5" height="50" x="430" y="0" fill="#ff1193"/><rect width="5" height="50" x="435" y="0" fill="#00e3ce"/><rect width="5" height="50" x="440" y="0" fill="#9d9d9d"/><rect width="5" height="50" x="445" y="0" fill="#ff5693"/><rect width="5" height="50" x="450" y="0" fill="#5b5b5b"/><rect width="5" height="50" x="455" y="0" fill="#7d7d7d"/><rect width="5" height="50" x="460" y="0" fill="#0ff"/><rect width="5" height="50" x="465" y="0" fill="#ff4a83"/><rect width="5" height="50" x="470" y="0" fill="#bebebe"/><rect width="5" height="50" x="475" y="0" fill="#ff2f5c"/><rect width="5" height="50" x="480" y="0" fill="#b28500"/><rect width="5" height="50" x="485" y="0" fill="#707070"/><rect width="5" height="50" x="490" y="0" fill="#00ffd7"/><rect width="5" height="50" x="495" y="0" fill="#898989"/></g></svg>