<svg xmlns="http://www.w3.org/2000/svg" xmlns:xlink="http://www.w3.org/1999/xlink" width="500" height="50" version="1.1"><g><rect width="5" height="50" x="0" y="0" fill="#f0c404"/><rect width="5" height="50" x="5" y="0" fill="#00dee4"/><rect width="5" height="50" x="10" y="0" fill="#00f1b5"/><rect width="5" height="50" x="15" y="0" fill="#00f9df"/><rect width="5" height="50" x="20" y="0" fill="#ff7c89"/><rect width="5" height="50" x="25" y="0" fill="#ff82b1"/><rect width="5" height="50" x="30" y="0" fill="#f2f2f2"/><rect width="5" height="50" x="35" y="0" fill="#383838"/><rect width="5" height="50" x="40" y="0" fill="#ff4aa3"/><rect width="5" height="50" x="45" y="0" fill="#00fabe"/><rect width="5" height="50" x="50" y="0" fill="#00c9d8"/><rect width="5" height="50" x="55" y="0" fill="#fcfcfc"/><rect width="5" height="50" x="60" y="0" fill="#00e0c3"/><rect width="5" height="50" x="65" y="0" fill="#ff9c10"/><rect width="5" height="50" x="70" y="0" fill="#00fff0"/><rect width="5" height="50" x="75" y="0" fill="#313131"/><rect width="5" height="50" x="80" y="0" fill="#00e8c5"/><rect width="5" height="50" x="85" y="0" fill="#a88900"/><rect width="5" height="50" x="90" y="0" fill="#ff6181"/><rect width="5" height="50" x="95" y="0" fill="#ff908e"/><rect width="5" height="50" x="100" y="0" fill="#ff53a6"/><rect width="5" height="50" x="105" y="0" fill="#d1be3f"/><rect width="5" height="50" x="110" y="0" fill="#ff96c4"/><rect width="5" height="50" x="115" y="0" fill="#e2e2e2"/><rect width="5" height="50" x="120" y="0" fill="#f3cc36"/><rect width="5" height="50" x="125" y="0" fill="#00d7a7"/><rect width="5" height="50" x="130" y="0" fill="#cfa800"/><rect width="5" height="50" x="135" y="0" fill="#f6f6f6"/><rect width="5" height="50" x="140" y="0" fill="#be9100"/><rect width="5" height="50" x="145" y="0" fill="#e0e0e0"/><rect width="5" height="50" x="150" y="0" fill="#464646"/><rect width="5" height="50" x="155" y="0" fill="#323232"/><rect width="5" height="50" x="160" y="0" fill="#008454"/><rect width="5" height="50" x="165" y="0" fill="#00fde2"/><rect width="5" height="50" x="170" y="0" fill="#ff93ca"/><rect width="5" height="50" x="175" y="0" fill="#444"/><rect width="5" height="50" x="180" y="0" fill="#414141"/><rect width="5" height="50" x="185" y="0" fill="#323232"/><rect width="5" height="50" x="190" y="0" fill="#f6f6f6"/><rect width="5" height="50" x="195" y="0" fill="#de9118"/><rect width="5" height="50" x="200" y="0" fill="#00b494"/><rect width="5" height="50" x="205" y="0" fill="#3c3c3c"/><rect width="5" height="50" x="210" y="0" fill="#bc5f00"/><rect width="5" height="50" x="215" y="0" fill="#0ff"/><rect width="5" height="50" x="220" y="0" fill="#ce9c00"/><rect width="5" height="50" x="225" y="0" fill="#424242"/><rect width="5" height="50" x="230" y="0" fill="#ddd"/><rect width="5" height="50" x="235" y="0" fill="#434343"/><rect width="5" height="50" x="240" y="0" fill="#464646"/><rect width="5" height="50" x="245" y="0" fill="#f7f7f7"/><rect width="5" height="50" x="250" y="0" fill="#dbdbdb"/><rect width="5" height="50" x="255" y="0" fill="#00ce9b"/><rect width="5" height="50" x="260" y="0" fill="#fbe000"/><rect width="5" height="50" x="265" y="0" fill="#00cfd2"/><rect width="5" height="50" x="270" y="0" fill="#f0f0f0"/><rect width="5" height="50" x="275" y="0" fill="#d4d4d4"/><rect width="5" height="50" x="280" y="0" fill="#3d3d3d"/><rect width="5" height="50" x="285" y="0" fill="#ff7fe5"/><rect width="5" height="50" x="290" y="0" fill="#ac5600"/><rect width="5" height="50" x="295" y="0" fill="#cdcdcd"/><rect width="5" height="50" x="300" y="0" fill="#fb6980"/><rect width="5" height="50" x="305" y="0" fill="#ff008f"/><rect width="5" height="50" x="310" y="0" fill="#797300"/><rect width="5" height="50" x="315" y="0" fill="#e3e3e3"/><rect width="5" height="50" x="320" y="0" fill="#f1666a"/><rect width="5" height="50" x="325" y="0" fill="#ededed"/><rect width="5" height="50" x="330" y="0" fill="#ff95b5"/><rect width="5" height="50" x="335" y="0" fill="#d7b100"/><rect width="5" height="50" x="340" y="0" fill="#d73b4c"/><rect width="5" height="50" x="345" y="0" fill="#e2e2e2"/><rect width="5" height="50" x="350" y="0" fill="#343434"/><rect width="5" height="50" x="355" y="0" fill="#f8f8f8"/><rect width="5" height="50" x="360" y="0" fill="#fdfdfd"/><rect width="5" height="50" x="365" y="0" fill="#ff808a"/><rect width="5" height="50" x="370" y="0" fill="#7b6000"/><rect width="5" height="50" x="375" y="0" fill="#00a7a4"/><rect width="5" height="50" x="380" y="0" fill="#ff6f77"/><rect width="5" height="50" x="385" y="0" fill="#fcb42a"/><rect width="5" height="50" x="390" y="0" fill="#ff608e"/><rect width="5" height="50" x="395" y="0" fill="#886d00"/><rect width="5" height="50" x="400" y="0" fill="#e9df00"/><rect width="5" height="50" x="405" y="0" fill="#f36272"/><rect width="5" height="50" x="410" y="0" fill="#878100"/><rect width="5" height="50" x="415" y="0" fill="#ff7a86"/><rect width="5" height="50" x="420" y="0" fill="#454545"/><rect width="5" height="50" x="425" y="0" fill="#ff5f6e"/><rect width="5" height="50" x="430" y="0" fill="#ff6fbd"/><rect width="5" height="50" x="435" y="0" fill="#a17400"/><rect width="5" height="50" x="440" y="0" fill="#ececec"/><rect width="5" height="50" x="445" y="0" fill="#ff4f69"/><rect width="5" height="50" x="450" y="0" fill="#db006b"/><rect width="5" height="50" x="455" y="0" fill="#b46a00"/><rect width="5" height="50" x="460" y="0" fill="#fd2d5e"/><rect width="5" height="50" x="465" y="0" fill="#e2e2e2"/><rect width="5" height="50" x="470" y="0" fill="#dbc650"/><rect width="5" height="50" x="475" y="0" fill="#ff3f5a"/><rect width="5" height="50" x="480" y="0" fill="#867900"/><rect width="5" height="50" x="485" y="0" fill="#bd9b29"/><rect width="5" height="50" x="490" y="0" fill="#fcd85e"/><rect width="5" height="50" x="495" y="0" fill="#363636"/></g></svg>