<svg xmlns="http://www.w3.org/2000/svg" xmlns:xlink="http://www.w3.org/1999/xlink" width="500" height="50" version="1.1"><g><rect width="5" height="50" x="0" y="0" fill="#fef9ec"/><rect width="5" height="50" x="5" y="0" fill="#f2f0e2"/><rect width="5" height="50" x="10" y="0" fill="#e9e3da"/><rect width="5" height="50" x="15" y="0" fill="#ebe1d8"/><rect width="5" height="50" x="20" y="0" fill="#fff4e6"/><rect width="5" height="50" x="25" y="0" fill="#fffbe7"/><rect width="5" height="50" x="30" y="0" fill="#f6e8da"/><rect width="5" height="50" x="35" y="0" fill="#fff5e4"/><rect width="5" height="50" x="40" y="0" fill="#fdf3df"/><rect width="5" height="50" x="45" y="0" fill="#fdf2de"/><rect width="5" height="50" x="50" y="0" fill="#f4f0da"/><rect width="5" height="50" x="55" y="0" fill="#fbf2db"/><rect width="5" height="50" x="60" y="0" fill="#fcf5dd"/><rect width="5" height="50" x="65" y="0" fill="#e8e3cf"/><rect width="5" height="50" x="70" y="0" fill="#fffbe3"/><rect width="5" height="50" x="75" y="0" fill="#fffce0"/><rect width="5" height="50" x="80" y="0" fill="#fff3db"/><rect width="5" height="50" x="85" y="0" fill="#fffedd"/><rect width="5" height="50" x="90" y="0" fill="#fde5d0"/><rect width="5" height="50" x="95" y="0" fill="#fceacb"/><rect width="5" height="50" x="100" y="0" fill="#fff3d0"/><rect width="5" height="50" x="105" y="0" fill="#feddc2"/><rect width="5" height="50" x="110" y="0" fill="#eaf9f8"/><rect width="5" height="50" x="115" y="0" fill="#e6f9f6"/><rect width="5" height="50" x="120" y="0" fill="#e1f5f1"/><rect width="5" height="50" x="125" y="0" fill="#ecffff"/><rect width="5" height="50" x="130" y="0" fill="#e1f7ee"/><rect width="5" height="50" x="135" y="0" fill="#e0fdff"/><rect width="5" height="50" x="140" y="0" fill="#ddf7f3"/><rect width="5" height="50" x="145" y="0" fill="#e9fffe"/><rect width="5" height="50" x="150" y="0" fill="#e5ffff"/><rect width="5" height="50" x="155" y="0" fill="#d8f5ed"/><rect width="5" height="50" x="160" y="0" fill="#e0fff9"/><rect width="5" height="50" x="165" y="0" fill="#e5fff9"/><rect width="5" height="50" x="170" y="0" fill="#e3fff9"/><rect width="5" height="50" x="175" y="0" fill="#ddfff3"/><rect width="5" height="50" x="180" y="0" fill="#dfffff"/><rect width="5" height="50" x="185" y="0" fill="#d9feef"/><rect width="5" height="50" x="190" y="0" fill="#ccf3e9"/><rect width="5" height="50" x="195" y="0" fill="#d1f9ed"/><rect width="5" height="50" x="200" y="0" fill="#d2ffff"/><rect width="5" height="50" x="205" y="0" fill="#c8f7f0"/><rect width="5" height="50" x="210" y="0" fill="#c8fcfb"/><rect width="5" height="50" x="215" y="0" fill="#ccfffc"/><rect width="5" height="50" x="220" y="0" fill="#fff3f2"/><rect width="5" height="50" x="225" y="0" fill="#fff1f6"/><rect width="5" height="50" x="230" y="0" fill="#f6e7e8"/><rect width="5" height="50" x="235" y="0" fill="#f3e4e3"/><rect width="5" height="50" x="240" y="0" fill="#f6e4e7"/><rect width="5" height="50" x="245" y="0" fill="#f3e1e5"/><rect width="5" height="50" x="250" y="0" fill="#fff5fc"/><rect width="5" height="50" x="255" y="0" fill="#f6e1e1"/><rect width="5" height="50" x="260" y="0" fill="#ffeff7"/><rect width="5" height="50" x="265" y="0" fill="#f4dde6"/><rect width="5" height="50" x="270" y="0" fill="#fde2e9"/><rect width="5" height="50" x="275" y="0" fill="#ffe5f0"/><rect width="5" height="50" x="280" y="0" fill="#fff5f7"/><rect width="5" height="50" x="285" y="0" fill="#ffe7ec"/><rect width="5" height="50" x="290" y="0" fill="#ffdbd9"/><rect width="5" height="50" x="295" y="0" fill="#ffdfe6"/><rect width="5" height="50" x="300" y="0" fill="#ffeaeb"/><rect width="5" height="50" x="305" y="0" fill="#ffe9f5"/><rect width="5" height="50" x="310" y="0" fill="#ffd9e1"/><rect width="5" height="50" x="315" y="0" fill="#ffebed"/><rect width="5" height="50" x="320" y="0" fill="#fff0f2"/><rect width="5" height="50" x="325" y="0" fill="#ffe1e9"/><rect width="5" height="50" x="330" y="0" fill="#eee"/><rect width="5" height="50" x="335" y="0" fill="#ececec"/><rect width="5" height="50" x="340" y="0" fill="#ececec"/><rect width="5" height="50" x="345" y="0" fill="#c6c6c6"/><rect width="5" height="50" x="350" y="0" fill="#c3c3c3"/><rect width="5" height="50" x="355" y="0" fill="#b3b3b3"/><rect width="5" height="50" x="360" y="0" fill="#9d9d9d"/><rect width="5" height="50" x="365" y="0" fill="#959595"/><rect width="5" height="50" x="370" y="0" fill="#8b8b8b"/><rect width="5" height="50" x="375" y="0" fill="#7f7f7f"/><rect width="5" height="50" x="380" y="0" fill="#3d3d3d"/><rect width="5" height="50" x="385" y="0" fill="#fdfdfd"/><rect width="5" height="50" x="390" y="0" fill="#f5f5f5"/><rect width="5" height="50" x="395" y="0" fill="#e0e0e0"/><rect width="5" height="50" x="400" y="0" fill="#c4c4c4"/><rect width="5" height="50" x="405" y="0" fill="#9e9e9e"/><rect width="5" height="50" x="410" y="0" fill="#9a9a9a"/><rect width="5" height="50" x="415" y="0" fill="#979797"/><rect width="5" height="50" x="420" y="0" fill="#898989"/><rect width="5" height="50" x="425" y="0" fill="#6f6f6f"/><rect width="5" height="50" x="430" y="0" fill="#353535"/><rect width="5" height="50" x="435" y="0" fill="#0a0a0a"/><rect width="5" height="50" x="440" y="0" fill="#fff"/><rect width="5" height="50" x="445" y="0" fill="#fdfdfd"/><rect width="5" height="50" x="450" y="0" fill="#fcfcfc"/><rect width="5" height="50" x="455" y="0" fill="#f9f9f9"/><rect width="5" height="50" x="460" y="0" fill="#f9f9f9"/><rect width="5" height="50" x="465" y="0" fill="#f8f8f8"/><rect width="5" height="50" x="470" y="0" fill="#f6f6f6"/><rect width="5" height="50" x="475" y="0" fill="#f5f5f5"/><rect width="5" height="50" x="480" y="0" fill="#f4f4f4"/><rect width="5" height="50" x="485" y="0" fill="#f2f2f2"/><rect width="5" height="50" x="490" y="0" fill="#f2f2f2"/></g></svg>