<svg xmlns="http://www.w3.org/2000/svg" xmlns:xlink="http://www.w3.org/1999/xlink" width="500" height="50" version="1.1"><g><rect width="5" height="50" x="0" y="0" fill="#ff71ca"/><rect width="5" height="50" x="5" y="0" fill="#ff0080"/><rect width="5" height="50" x="10" y="0" fill="#ff5ca8"/><rect width="5" height="50" x="15" y="0" fill="#e40047"/><rect width="5" height="50" x="20" y="0" fill="#ff95bb"/><rect width="5" height="50" x="25" y="0" fill="#dd0043"/><rect width="5" height="50" x="30" y="0" fill="#ff6e96"/><rect width="5" height="50" x="35" y="0" fill="#ff3960"/><rect width="5" height="50" x="40" y="0" fill="#ff969c"/><rect width="5" height="50" x="45" y="0" fill="#ff8b8c"/><rect width="5" height="50" x="50" y="0" fill="#ff4130"/><rect width="5" height="50" x="55" y="0" fill="#da1d0a"/><rect width="5" height="50" x="60" y="0" fill="#d84700"/><rect width="5" height="50" x="65" y="0" fill="#dc4300"/><rect width="5" height="50" x="70" y="0" fill="#d65f00"/><rect width="5" height="50" x="75" y="0" fill="#ffa831"/><rect width="5" height="50" x="80" y="0" fill="#9c4300"/><rect width="5" height="50" x="85" y="0" fill="#e78600"/><rect width="5" height="50" x="90" y="0" fill="#ffd223"/><rect width="5" height="50" x="95" y="0" fill="#ed9500"/><rect width="5" height="50" x="100" y="0" fill="#d39a00"/><rect width="5" height="50" x="105" y="0" fill="#fdc900"/><rect width="5" height="50" x="110" y="0" fill="#957900"/><rect width="5" height="50" x="115" y="0" fill="#b9b100"/><rect width="5" height="50" x="120" y="0" fill="#717400"/><rect width="5" height="50" x="125" y="0" fill="#677e00"/><rect width="5" height="50" x="130" y="0" fill="#899f00"/><rect width="5" height="50" x="135" y="0" fill="#4e7000"/><rect width="5" height="50" x="140" y="0" fill="#dcff29"/><rect width="5" height="50" x="145" y="0" fill="#518b00"/><rect width="5" height="50" x="150" y="0" fill="#86c200"/><rect width="5" height="50" x="155" y="0" fill="#8be50f"/><rect width="5" height="50" x="160" y="0" fill="#1e7f00"/><rect width="5" height="50" x="165" y="0" fill="#b2ff5b"/><rect width="5" height="50" x="170" y="0" fill="#69d400"/><rect width="5" height="50" x="175" y="0" fill="#9afa47"/><rect width="5" height="50" x="180" y="0" fill="#22df52"/><rect width="5" height="50" x="185" y="0" fill="#00fd6c"/><rect width="5" height="50" x="190" y="0" fill="#007d00"/><rect width="5" height="50" x="195" y="0" fill="#0fa"/><rect width="5" height="50" x="200" y="0" fill="#00c85f"/><rect width="5" height="50" x="205" y="0" fill="#00c363"/><rect width="5" height="50" x="210" y="0" fill="#00b75a"/><rect width="5" height="50" x="215" y="0" fill="#00dca0"/><rect width="5" height="50" x="220" y="0" fill="#00e2a6"/><rect width="5" height="50" x="225" y="0" fill="#00cc96"/><rect width="5" height="50" x="230" y="0" fill="#00c4a8"/><rect width="5" height="50" x="235" y="0" fill="#008d7a"/><rect width="5" height="50" x="240" y="0" fill="#009f8f"/><rect width="5" height="50" x="245" y="0" fill="#00878e"/><rect width="5" height="50" x="250" y="0" fill="#00dce2"/><rect width="5" height="50" x="255" y="0" fill="#0ff"/><rect width="5" height="50" x="260" y="0" fill="#00afc3"/><rect width="5" height="50" x="265" y="0" fill="#00a7c3"/><rect width="5" height="50" x="270" y="0" fill="#009abd"/><rect width="5" height="50" x="275" y="0" fill="#00f9ff"/><rect width="5" height="50" x="280" y="0" fill="#0080b9"/><rect width="5" height="50" x="285" y="0" fill="#0ff"/><rect width="5" height="50" x="290" y="0" fill="#009de8"/><rect width="5" height="50" x="295" y="0" fill="#00a5ff"/><rect width="5" height="50" x="300" y="0" fill="#0092f7"/><rect width="5" height="50" x="305" y="0" fill="#09f"/><rect width="5" height="50" x="310" y="0" fill="#0ff"/><rect width="5" height="50" x="315" y="0" fill="#00a9ff"/><rect width="5" height="50" x="320" y="0" fill="#00f4ff"/><rect width="5" height="50" x="325" y="0" fill="#00a2ff"/><rect width="5" height="50" x="330" y="0" fill="#007fff"/><rect width="5" height="50" x="335" y="0" fill="#00d5ff"/><rect width="5" height="50" x="340" y="0" fill="#0ff"/><rect width="5" height="50" x="345" y="0" fill="#0098ff"/><rect width="5" height="50" x="350" y="0" fill="#aafbff"/><rect width="5" height="50" x="355" y="0" fill="#0060f8"/><rect width="5" height="50" x="360" y="0" fill="#0072ff"/><rect width="5" height="50" x="365" y="0" fill="#cfd1ff"/><rect width="5" height="50" x="370" y="0" fill="#707dff"/><rect width="5" height="50" x="375" y="0" fill="#5f53f1"/><rect width="5" height="50" x="380" y="0" fill="#d4aeff"/><rect width="5" height="50" x="385" y="0" fill="#8f53f8"/><rect width="5" height="50" x="390" y="0" fill="#e99aff"/><rect width="5" height="50" x="395" y="0" fill="#ffcbff"/><rect width="5" height="50" x="400" y="0" fill="#ba4eeb"/><rect width="5" height="50" x="405" y="0" fill="#ff81ff"/><rect width="5" height="50" x="410" y="0" fill="#ff9eff"/><rect width="5" height="50" x="415" y="0" fill="#ff96ff"/><rect width="5" height="50" x="420" y="0" fill="#eb64ff"/><rect width="5" height="50" x="425" y="0" fill="#ff7cff"/><rect width="5" height="50" x="430" y="0" fill="#ff96ff"/><rect width="5" height="50" x="435" y="0" fill="#ff70ff"/><rect width="5" height="50" x="440" y="0" fill="#bf13bd"/><rect width="5" height="50" x="445" y="0" fill="#d82dd5"/><rect width="5" height="50" x="450" y="0" fill="#ff69fd"/><rect width="5" height="50" x="455" y="0" fill="#ff6bff"/><rect width="5" height="50" x="460" y="0" fill="#ff0dbb"/><rect width="5" height="50" x="465" y="0" fill="#ff6ff8"/><rect width="5" height="50" x="470" y="0" fill="#ff81ff"/><rect width="5" height="50" x="475" y="0" fill="#ff4bd6"/><rect width="5" height="50" x="480" y="0" fill="#ff9cff"/><rect width="5" height="50" x="485" y="0" fill="#dc007e"/><rect width="5" height="50" x="490" y="0" fill="#ff009b"/><rect width="5" height="50" x="495" y="0" fill="#ff20a3"/></g></svg>