<svg xmlns="http://www.w3.org/2000/svg" xmlns:xlink="http://www.w3.org/1999/xlink" width="500" height="50" version="1.1"><g><rect width="5" height="50" x="0" y="0" fill="#b70056"/><rect width="5" height="50" x="5" y="0" fill="#a3003c"/><rect width="5" height="50" x="10" y="0" fill="#95001b"/><rect width="5" height="50" x="15" y="0" fill="#970014"/><rect width="5" height="50" x="20" y="0" fill="#a60020"/><rect width="5" height="50" x="25" y="0" fill="#ac0005"/><rect width="5" height="50" x="30" y="0" fill="#a4001a"/><rect width="5" height="50" x="35" y="0" fill="#740000"/><rect width="5" height="50" x="40" y="0" fill="#920000"/><rect width="5" height="50" x="45" y="0" fill="#730000"/><rect width="5" height="50" x="50" y="0" fill="#700"/><rect width="5" height="50" x="55" y="0" fill="#9d0000"/><rect width="5" height="50" x="60" y="0" fill="#9f1d00"/><rect width="5" height="50" x="65" y="0" fill="#750000"/><rect width="5" height="50" x="70" y="0" fill="#821400"/><rect width="5" height="50" x="75" y="0" fill="#6a0000"/><rect width="5" height="50" x="80" y="0" fill="#740000"/><rect width="5" height="50" x="85" y="0" fill="#912000"/><rect width="5" height="50" x="90" y="0" fill="#651a00"/><rect width="5" height="50" x="95" y="0" fill="#6d3200"/><rect width="5" height="50" x="100" y="0" fill="#864000"/><rect width="5" height="50" x="105" y="0" fill="#662900"/><rect width="5" height="50" x="110" y="0" fill="#5a3600"/><rect width="5" height="50" x="115" y="0" fill="#604b00"/><rect width="5" height="50" x="120" y="0" fill="#422d00"/><rect width="5" height="50" x="125" y="0" fill="#443400"/><rect width="5" height="50" x="130" y="0" fill="#495f00"/><rect width="5" height="50" x="135" y="0" fill="#152f00"/><rect width="5" height="50" x="140" y="0" fill="#1b4700"/><rect width="5" height="50" x="145" y="0" fill="#0f4500"/><rect width="5" height="50" x="150" y="0" fill="#003400"/><rect width="5" height="50" x="155" y="0" fill="#004100"/><rect width="5" height="50" x="160" y="0" fill="#030"/><rect width="5" height="50" x="165" y="0" fill="#007200"/><rect width="5" height="50" x="170" y="0" fill="#003a00"/><rect width="5" height="50" x="175" y="0" fill="#005800"/><rect width="5" height="50" x="180" y="0" fill="#005300"/><rect width="5" height="50" x="185" y="0" fill="#006500"/><rect width="5" height="50" x="190" y="0" fill="#007000"/><rect width="5" height="50" x="195" y="0" fill="#003a00"/><rect width="5" height="50" x="200" y="0" fill="#006709"/><rect width="5" height="50" x="205" y="0" fill="#003f00"/><rect width="5" height="50" x="210" y="0" fill="#006021"/><rect width="5" height="50" x="215" y="0" fill="#004206"/><rect width="5" height="50" x="220" y="0" fill="#003a05"/><rect width="5" height="50" x="225" y="0" fill="#00713f"/><rect width="5" height="50" x="230" y="0" fill="#00753c"/><rect width="5" height="50" x="235" y="0" fill="#00704b"/><rect width="5" height="50" x="240" y="0" fill="#005844"/><rect width="5" height="50" x="245" y="0" fill="#00755e"/><rect width="5" height="50" x="250" y="0" fill="#007663"/><rect width="5" height="50" x="255" y="0" fill="#007166"/><rect width="5" height="50" x="260" y="0" fill="#004749"/><rect width="5" height="50" x="265" y="0" fill="#004f54"/><rect width="5" height="50" x="270" y="0" fill="#00636a"/><rect width="5" height="50" x="275" y="0" fill="#006d75"/><rect width="5" height="50" x="280" y="0" fill="#006c77"/><rect width="5" height="50" x="285" y="0" fill="#004763"/><rect width="5" height="50" x="290" y="0" fill="#00536a"/><rect width="5" height="50" x="295" y="0" fill="#006d8c"/><rect width="5" height="50" x="300" y="0" fill="#00527c"/><rect width="5" height="50" x="305" y="0" fill="#005ea5"/><rect width="5" height="50" x="310" y="0" fill="#00407d"/><rect width="5" height="50" x="315" y="0" fill="#00478f"/><rect width="5" height="50" x="320" y="0" fill="#006cb1"/><rect width="5" height="50" x="325" y="0" fill="#004698"/><rect width="5" height="50" x="330" y="0" fill="#0045a4"/><rect width="5" height="50" x="335" y="0" fill="#00368a"/><rect width="5" height="50" x="340" y="0" fill="#0048ab"/><rect width="5" height="50" x="345" y="0" fill="#006cce"/><rect width="5" height="50" x="350" y="0" fill="#005fe2"/><rect width="5" height="50" x="355" y="0" fill="#004fec"/><rect width="5" height="50" x="360" y="0" fill="#0058d3"/><rect width="5" height="50" x="365" y="0" fill="#0049be"/><rect width="5" height="50" x="370" y="0" fill="#002aba"/><rect width="5" height="50" x="375" y="0" fill="#191495"/><rect width="5" height="50" x="380" y="0" fill="#5d33b9"/><rect width="5" height="50" x="385" y="0" fill="#511092"/><rect width="5" height="50" x="390" y="0" fill="#4a0093"/><rect width="5" height="50" x="395" y="0" fill="#580082"/><rect width="5" height="50" x="400" y="0" fill="#8500b0"/><rect width="5" height="50" x="405" y="0" fill="#a000c7"/><rect width="5" height="50" x="410" y="0" fill="#5d0087"/><rect width="5" height="50" x="415" y="0" fill="#790a91"/><rect width="5" height="50" x="420" y="0" fill="#83009c"/><rect width="5" height="50" x="425" y="0" fill="#9c0fae"/><rect width="5" height="50" x="430" y="0" fill="#820082"/><rect width="5" height="50" x="435" y="0" fill="#90008f"/><rect width="5" height="50" x="440" y="0" fill="#85007d"/><rect width="5" height="50" x="445" y="0" fill="#ae00a0"/><rect width="5" height="50" x="450" y="0" fill="#8f0073"/><rect width="5" height="50" x="455" y="0" fill="#870064"/><rect width="5" height="50" x="460" y="0" fill="#ae007f"/><rect width="5" height="50" x="465" y="0" fill="#bf008b"/><rect width="5" height="50" x="470" y="0" fill="#b00069"/><rect width="5" height="50" x="475" y="0" fill="#78003b"/><rect width="5" height="50" x="480" y="0" fill="#b20057"/><rect width="5" height="50" x="485" y="0" fill="#c6006c"/><rect width="5" height="50" x="490" y="0" fill="#850032"/><rect width="5" height="50" x="495" y="0" fill="#8e0037"/></g></svg>