<svg xmlns="http://www.w3.org/2000/svg" xmlns:xlink="http://www.w3.org/1999/xlink" width="500" height="50" version="1.1"><g><rect width="5" height="50" x="0" y="0" fill="#ffb8f5"/><rect width="5" height="50" x="5" y="0" fill="#ffc9f3"/><rect width="5" height="50" x="10" y="0" fill="#ffbfe8"/><rect width="5" height="50" x="15" y="0" fill="#ffcce6"/><rect width="5" height="50" x="20" y="0" fill="#ffd4ce"/><rect width="5" height="50" x="25" y="0" fill="#ffbfb5"/><rect width="5" height="50" x="30" y="0" fill="#ffcab3"/><rect width="5" height="50" x="35" y="0" fill="#ffdcc6"/><rect width="5" height="50" x="40" y="0" fill="#ffccb4"/><rect width="5" height="50" x="45" y="0" fill="#ffd8b5"/><rect width="5" height="50" x="50" y="0" fill="#ffd1a1"/><rect width="5" height="50" x="55" y="0" fill="#ffd5a1"/><rect width="5" height="50" x="60" y="0" fill="#ffd8ae"/><rect width="5" height="50" x="65" y="0" fill="#ffde9d"/><rect width="5" height="50" x="70" y="0" fill="#ffe3ad"/><rect width="5" height="50" x="75" y="0" fill="#ffe289"/><rect width="5" height="50" x="80" y="0" fill="#ffed98"/><rect width="5" height="50" x="85" y="0" fill="#fff1ab"/><rect width="5" height="50" x="90" y="0" fill="#fff2ac"/><rect width="5" height="50" x="95" y="0" fill="#ffe799"/><rect width="5" height="50" x="100" y="0" fill="#ffe7a8"/><rect width="5" height="50" x="105" y="0" fill="#ffefa9"/><rect width="5" height="50" x="110" y="0" fill="#ffe894"/><rect width="5" height="50" x="115" y="0" fill="#f9e7ab"/><rect width="5" height="50" x="120" y="0" fill="#fffe9a"/><rect width="5" height="50" x="125" y="0" fill="#ffffa8"/><rect width="5" height="50" x="130" y="0" fill="#fff99f"/><rect width="5" height="50" x="135" y="0" fill="#e2ee61"/><rect width="5" height="50" x="140" y="0" fill="#f6ff8b"/><rect width="5" height="50" x="145" y="0" fill="#e1ff91"/><rect width="5" height="50" x="150" y="0" fill="#c8ff8c"/><rect width="5" height="50" x="155" y="0" fill="#baffa7"/><rect width="5" height="50" x="160" y="0" fill="#a6ffa8"/><rect width="5" height="50" x="165" y="0" fill="#d2ffd2"/><rect width="5" height="50" x="170" y="0" fill="#96ffa5"/><rect width="5" height="50" x="175" y="0" fill="#acffc2"/><rect width="5" height="50" x="180" y="0" fill="#c6ffd4"/><rect width="5" height="50" x="185" y="0" fill="#00ffec"/><rect width="5" height="50" x="190" y="0" fill="#6fffff"/><rect width="5" height="50" x="195" y="0" fill="#0ff"/><rect width="5" height="50" x="200" y="0" fill="#60ffff"/><rect width="5" height="50" x="205" y="0" fill="#0ff"/><rect width="5" height="50" x="210" y="0" fill="#0ff"/><rect width="5" height="50" x="215" y="0" fill="#7affff"/><rect width="5" height="50" x="220" y="0" fill="#0ff"/><rect width="5" height="50" x="225" y="0" fill="#77faff"/><rect width="5" height="50" x="230" y="0" fill="#25ffff"/><rect width="5" height="50" x="235" y="0" fill="#7ff"/><rect width="5" height="50" x="240" y="0" fill="#21ffff"/><rect width="5" height="50" x="245" y="0" fill="#0ff"/><rect width="5" height="50" x="250" y="0" fill="#5effff"/><rect width="5" height="50" x="255" y="0" fill="#90ffff"/><rect width="5" height="50" x="260" y="0" fill="#9dffff"/><rect width="5" height="50" x="265" y="0" fill="#5dffff"/><rect width="5" height="50" x="270" y="0" fill="#00feff"/><rect width="5" height="50" x="275" y="0" fill="#0ff"/><rect width="5" height="50" x="280" y="0" fill="#5fffff"/><rect width="5" height="50" x="285" y="0" fill="#adffff"/><rect width="5" height="50" x="290" y="0" fill="#a5ffff"/><rect width="5" height="50" x="295" y="0" fill="#34ffff"/><rect width="5" height="50" x="300" y="0" fill="#8ff"/><rect width="5" height="50" x="305" y="0" fill="#7efaff"/><rect width="5" height="50" x="310" y="0" fill="#7bffff"/><rect width="5" height="50" x="315" y="0" fill="#6ef2ff"/><rect width="5" height="50" x="320" y="0" fill="#93eeff"/><rect width="5" height="50" x="325" y="0" fill="#61ffff"/><rect width="5" height="50" x="330" y="0" fill="#76f9ff"/><rect width="5" height="50" x="335" y="0" fill="#8ff5ff"/><rect width="5" height="50" x="340" y="0" fill="#2bf7ff"/><rect width="5" height="50" x="345" y="0" fill="#4ff"/><rect width="5" height="50" x="350" y="0" fill="#b8ebff"/><rect width="5" height="50" x="355" y="0" fill="#7dffff"/><rect width="5" height="50" x="360" y="0" fill="#86ffff"/><rect width="5" height="50" x="365" y="0" fill="#6aeeff"/><rect width="5" height="50" x="370" y="0" fill="#acffff"/><rect width="5" height="50" x="375" y="0" fill="#b2f9ff"/><rect width="5" height="50" x="380" y="0" fill="#cceaff"/><rect width="5" height="50" x="385" y="0" fill="#b9efff"/><rect width="5" height="50" x="390" y="0" fill="#dfebff"/><rect width="5" height="50" x="395" y="0" fill="#d0f6ff"/><rect width="5" height="50" x="400" y="0" fill="#c3dfff"/><rect width="5" height="50" x="405" y="0" fill="#d5deff"/><rect width="5" height="50" x="410" y="0" fill="#e5dfff"/><rect width="5" height="50" x="415" y="0" fill="#fbefff"/><rect width="5" height="50" x="420" y="0" fill="#eadfff"/><rect width="5" height="50" x="425" y="0" fill="#f5dbff"/><rect width="5" height="50" x="430" y="0" fill="#efd3ff"/><rect width="5" height="50" x="435" y="0" fill="#ffe7ff"/><rect width="5" height="50" x="440" y="0" fill="#ffdcff"/><rect width="5" height="50" x="445" y="0" fill="#ffe8ff"/><rect width="5" height="50" x="450" y="0" fill="#ffdeff"/><rect width="5" height="50" x="455" y="0" fill="#ffefff"/><rect width="5" height="50" x="460" y="0" fill="#ffd9ff"/><rect width="5" height="50" x="465" y="0" fill="#ffceff"/><rect width="5" height="50" x="470" y="0" fill="#ffcaff"/><rect width="5" height="50" x="475" y="0" fill="#ffc8ff"/><rect width="5" height="50" x="480" y="0" fill="#ffcbff"/><rect width="5" height="50" x="485" y="0" fill="#fdf"/><rect width="5" height="50" x="490" y="0" fill="#ffdbff"/><rect width="5" height="50" x="495" y="0" fill="#ffd8fa"/></g></svg>