<svg xmlns="http://www.w3.org/2000/svg" xmlns:xlink="http://www.w3.org/1999/xlink" width="500" height="50" version="1.1"><g><rect width="5" height="50" x="0" y="0" fill="#fff6d5"/><rect width="5" height="50" x="5" y="0" fill="#fdeecd"/><rect width="5" height="50" x="10" y="0" fill="#eadebe"/><rect width="5" height="50" x="15" y="0" fill="#fffbd8"/><rect width="5" height="50" x="20" y="0" fill="#ede1b8"/><rect width="5" height="50" x="25" y="0" fill="#e3dab3"/><rect width="5" height="50" x="30" y="0" fill="#f5d9b8"/><rect width="5" height="50" x="35" y="0" fill="#e8cdb2"/><rect width="5" height="50" x="40" y="0" fill="#dcc8ac"/><rect width="5" height="50" x="45" y="0" fill="#ffdcb8"/><rect width="5" height="50" x="50" y="0" fill="#f1d8af"/><rect width="5" height="50" x="55" y="0" fill="#e0c6a5"/><rect width="5" height="50" x="60" y="0" fill="#ffe2b0"/><rect width="5" height="50" x="65" y="0" fill="#d8cea1"/><rect width="5" height="50" x="70" y="0" fill="#c1ba9c"/><rect width="5" height="50" x="75" y="0" fill="#c4bb95"/><rect width="5" height="50" x="80" y="0" fill="#c8b197"/><rect width="5" height="50" x="85" y="0" fill="#cfb892"/><rect width="5" height="50" x="90" y="0" fill="#ddb88c"/><rect width="5" height="50" x="95" y="0" fill="#bdaf88"/><rect width="5" height="50" x="100" y="0" fill="#c3a88a"/><rect width="5" height="50" x="105" y="0" fill="#cfb181"/><rect width="5" height="50" x="110" y="0" fill="#dffff6"/><rect width="5" height="50" x="115" y="0" fill="#cffaeb"/><rect width="5" height="50" x="120" y="0" fill="#bde5d9"/><rect width="5" height="50" x="125" y="0" fill="#c1f7ed"/><rect width="5" height="50" x="130" y="0" fill="#b2e1de"/><rect width="5" height="50" x="135" y="0" fill="#d2fff8"/><rect width="5" height="50" x="140" y="0" fill="#c1f5e2"/><rect width="5" height="50" x="145" y="0" fill="#a7d3cb"/><rect width="5" height="50" x="150" y="0" fill="#b1f2e7"/><rect width="5" height="50" x="155" y="0" fill="#aef8f7"/><rect width="5" height="50" x="160" y="0" fill="#beffed"/><rect width="5" height="50" x="165" y="0" fill="#aef6e6"/><rect width="5" height="50" x="170" y="0" fill="#9fc6b8"/><rect width="5" height="50" x="175" y="0" fill="#9ed6cc"/><rect width="5" height="50" x="180" y="0" fill="#9fe5dc"/><rect width="5" height="50" x="185" y="0" fill="#a2e1d0"/><rect width="5" height="50" x="190" y="0" fill="#95e1e2"/><rect width="5" height="50" x="195" y="0" fill="#98cbc2"/><rect width="5" height="50" x="200" y="0" fill="#97d9c9"/><rect width="5" height="50" x="205" y="0" fill="#96cdbe"/><rect width="5" height="50" x="210" y="0" fill="#8dcbc1"/><rect width="5" height="50" x="215" y="0" fill="#8db8ad"/><rect width="5" height="50" x="220" y="0" fill="#fbd6e3"/><rect width="5" height="50" x="225" y="0" fill="#fed5db"/><rect width="5" height="50" x="230" y="0" fill="#ffe7ee"/><rect width="5" height="50" x="235" y="0" fill="#ffebf5"/><rect width="5" height="50" x="240" y="0" fill="#ffeafe"/><rect width="5" height="50" x="245" y="0" fill="#f3c8d7"/><rect width="5" height="50" x="250" y="0" fill="#ffe4ee"/><rect width="5" height="50" x="255" y="0" fill="#eabfbf"/><rect width="5" height="50" x="260" y="0" fill="#ffceda"/><rect width="5" height="50" x="265" y="0" fill="#ffd4d1"/><rect width="5" height="50" x="270" y="0" fill="#ffddf4"/><rect width="5" height="50" x="275" y="0" fill="#ffc8e1"/><rect width="5" height="50" x="280" y="0" fill="#ffc3d3"/><rect width="5" height="50" x="285" y="0" fill="#edb5b1"/><rect width="5" height="50" x="290" y="0" fill="#fbb7c0"/><rect width="5" height="50" x="295" y="0" fill="#ffb8b4"/><rect width="5" height="50" x="300" y="0" fill="#c8a2a0"/><rect width="5" height="50" x="305" y="0" fill="#fcb3b4"/><rect width="5" height="50" x="310" y="0" fill="#d4a1a7"/><rect width="5" height="50" x="315" y="0" fill="#e5a5b4"/><rect width="5" height="50" x="320" y="0" fill="#e2a3b9"/><rect width="5" height="50" x="325" y="0" fill="#e7a3ac"/><rect width="5" height="50" x="330" y="0" fill="#8c8c8c"/><rect width="5" height="50" x="335" y="0" fill="#8b8b8b"/><rect width="5" height="50" x="340" y="0" fill="#868686"/><rect width="5" height="50" x="345" y="0" fill="#818181"/><rect width="5" height="50" x="350" y="0" fill="gray"/><rect width="5" height="50" x="355" y="0" fill="#7f7f7f"/><rect width="5" height="50" x="360" y="0" fill="#767676"/><rect width="5" height="50" x="365" y="0" fill="#6b6b6b"/><rect width="5" height="50" x="370" y="0" fill="#676767"/><rect width="5" height="50" x="375" y="0" fill="#666"/><rect width="5" height="50" x="380" y="0" fill="#656565"/><rect width="5" height="50" x="385" y="0" fill="#f2f2f2"/><rect width="5" height="50" x="390" y="0" fill="#eee"/><rect width="5" height="50" x="395" y="0" fill="#e8e8e8"/><rect width="5" height="50" x="400" y="0" fill="#e2e2e2"/><rect width="5" height="50" x="405" y="0" fill="#dbdbdb"/><rect width="5" height="50" x="410" y="0" fill="#d9d9d9"/><rect width="5" height="50" x="415" y="0" fill="#d2d2d2"/><rect width="5" height="50" x="420" y="0" fill="#7d7d7d"/><rect width="5" height="50" x="425" y="0" fill="#7b7b7b"/><rect width="5" height="50" x="430" y="0" fill="#696969"/><rect width="5" height="50" x="435" y="0" fill="#686868"/><rect width="5" height="50" x="440" y="0" fill="#fdfdfd"/><rect width="5" height="50" x="445" y="0" fill="#fbfbfb"/><rect width="5" height="50" x="450" y="0" fill="#f7f7f7"/><rect width="5" height="50" x="455" y="0" fill="#f6f6f6"/><rect width="5" height="50" x="460" y="0" fill="#f2f2f2"/><rect width="5" height="50" x="465" y="0" fill="#e6e6e6"/><rect width="5" height="50" x="470" y="0" fill="#ddd"/><rect width="5" height="50" x="475" y="0" fill="#d9d9d9"/><rect width="5" height="50" x="480" y="0" fill="#d8d8d8"/><rect width="5" height="50" x="485" y="0" fill="#d2d2d2"/><rect width="5" height="50" x="490" y="0" fill="#c9c9c9"/></g></svg>