<svg xmlns="http://www.w3.org/2000/svg" xmlns:xlink="http://www.w3.org/1999/xlink" width="500" height="50" version="1.1"><g><rect width="5" height="50" x="0" y="0" fill="#ffcd4a"/><rect width="5" height="50" x="5" y="0" fill="#ffd12f"/><rect width="5" height="50" x="10" y="0" fill="#ffdd43"/><rect width="5" height="50" x="15" y="0" fill="#ffd436"/><rect width="5" height="50" x="20" y="0" fill="#ffe400"/><rect width="5" height="50" x="25" y="0" fill="#e9d100"/><rect width="5" height="50" x="30" y="0" fill="#ffaf1f"/><rect width="5" height="50" x="35" y="0" fill="#ddcb00"/><rect width="5" height="50" x="40" y="0" fill="#deba00"/><rect width="5" height="50" x="45" y="0" fill="#fdaf00"/><rect width="5" height="50" x="50" y="0" fill="#c89f00"/><rect width="5" height="50" x="55" y="0" fill="#db8400"/><rect width="5" height="50" x="60" y="0" fill="#b19500"/><rect width="5" height="50" x="65" y="0" fill="#d17400"/><rect width="5" height="50" x="70" y="0" fill="#d56800"/><rect width="5" height="50" x="75" y="0" fill="#aa6800"/><rect width="5" height="50" x="80" y="0" fill="#8b7400"/><rect width="5" height="50" x="85" y="0" fill="#a26500"/><rect width="5" height="50" x="90" y="0" fill="#b65200"/><rect width="5" height="50" x="95" y="0" fill="#797200"/><rect width="5" height="50" x="100" y="0" fill="#866500"/><rect width="5" height="50" x="105" y="0" fill="#855d00"/><rect width="5" height="50" x="110" y="0" fill="#0ff"/><rect width="5" height="50" x="115" y="0" fill="#00ffe6"/><rect width="5" height="50" x="120" y="0" fill="#00fdbc"/><rect width="5" height="50" x="125" y="0" fill="#00f2fd"/><rect width="5" height="50" x="130" y="0" fill="#00f6c7"/><rect width="5" height="50" x="135" y="0" fill="#00e5b5"/><rect width="5" height="50" x="140" y="0" fill="#00ebb8"/><rect width="5" height="50" x="145" y="0" fill="#00d0b5"/><rect width="5" height="50" x="150" y="0" fill="#00bed9"/><rect width="5" height="50" x="155" y="0" fill="#00bcbd"/><rect width="5" height="50" x="160" y="0" fill="#00bcc4"/><rect width="5" height="50" x="165" y="0" fill="#00a787"/><rect width="5" height="50" x="170" y="0" fill="#00a584"/><rect width="5" height="50" x="175" y="0" fill="#009c74"/><rect width="5" height="50" x="180" y="0" fill="#00979d"/><rect width="5" height="50" x="185" y="0" fill="#009861"/><rect width="5" height="50" x="190" y="0" fill="#009160"/><rect width="5" height="50" x="195" y="0" fill="#0090a8"/><rect width="5" height="50" x="200" y="0" fill="#008057"/><rect width="5" height="50" x="205" y="0" fill="#007d50"/><rect width="5" height="50" x="210" y="0" fill="#007a4a"/><rect width="5" height="50" x="215" y="0" fill="#007c4e"/><rect width="5" height="50" x="220" y="0" fill="#ffaee3"/><rect width="5" height="50" x="225" y="0" fill="#ff9ec4"/><rect width="5" height="50" x="230" y="0" fill="#ff8fc5"/><rect width="5" height="50" x="235" y="0" fill="#ff91a1"/><rect width="5" height="50" x="240" y="0" fill="#ff89bc"/><rect width="5" height="50" x="245" y="0" fill="#ff87c2"/><rect width="5" height="50" x="250" y="0" fill="#ff7dd5"/><rect width="5" height="50" x="255" y="0" fill="#ff6fee"/><rect width="5" height="50" x="260" y="0" fill="#ff6ca0"/><rect width="5" height="50" x="265" y="0" fill="#ff68ab"/><rect width="5" height="50" x="270" y="0" fill="#ff60ac"/><rect width="5" height="50" x="275" y="0" fill="#ff5f8d"/><rect width="5" height="50" x="280" y="0" fill="#ff57c0"/><rect width="5" height="50" x="285" y="0" fill="#ff1ea4"/><rect width="5" height="50" x="290" y="0" fill="#ff0396"/><rect width="5" height="50" x="295" y="0" fill="#ff0897"/><rect width="5" height="50" x="300" y="0" fill="#ff005f"/><rect width="5" height="50" x="305" y="0" fill="#f30084"/><rect width="5" height="50" x="310" y="0" fill="#f5005a"/><rect width="5" height="50" x="315" y="0" fill="#f2005d"/><rect width="5" height="50" x="320" y="0" fill="#ee005a"/><rect width="5" height="50" x="325" y="0" fill="#e10053"/><rect width="5" height="50" x="330" y="0" fill="#ececec"/><rect width="5" height="50" x="335" y="0" fill="#dedede"/><rect width="5" height="50" x="340" y="0" fill="#c5c5c5"/><rect width="5" height="50" x="345" y="0" fill="#b1b1b1"/><rect width="5" height="50" x="350" y="0" fill="#a8a8a8"/><rect width="5" height="50" x="355" y="0" fill="#848484"/><rect width="5" height="50" x="360" y="0" fill="#777"/><rect width="5" height="50" x="365" y="0" fill="#5e5e5e"/><rect width="5" height="50" x="370" y="0" fill="#535353"/><rect width="5" height="50" x="375" y="0" fill="#202020"/><rect width="5" height="50" x="380" y="0" fill="#1d1d1d"/><rect width="5" height="50" x="385" y="0" fill="#b7b7b7"/><rect width="5" height="50" x="390" y="0" fill="#787878"/><rect width="5" height="50" x="395" y="0" fill="#696969"/><rect width="5" height="50" x="400" y="0" fill="#595959"/><rect width="5" height="50" x="405" y="0" fill="#4a4a4a"/><rect width="5" height="50" x="410" y="0" fill="#464646"/><rect width="5" height="50" x="415" y="0" fill="#2e2e2e"/><rect width="5" height="50" x="420" y="0" fill="#2b2b2b"/><rect width="5" height="50" x="425" y="0" fill="#2a2a2a"/><rect width="5" height="50" x="430" y="0" fill="#252525"/><rect width="5" height="50" x="435" y="0" fill="#202020"/><rect width="5" height="50" x="440" y="0" fill="#d1d1d1"/><rect width="5" height="50" x="445" y="0" fill="#c7c7c7"/><rect width="5" height="50" x="450" y="0" fill="#8c8c8c"/><rect width="5" height="50" x="455" y="0" fill="#6b6b6b"/><rect width="5" height="50" x="460" y="0" fill="#606060"/><rect width="5" height="50" x="465" y="0" fill="#585858"/><rect width="5" height="50" x="470" y="0" fill="#3f3f3f"/><rect width="5" height="50" x="475" y="0" fill="#343434"/><rect width="5" height="50" x="480" y="0" fill="#202020"/><rect width="5" height="50" x="485" y="0" fill="#151515"/><rect width="5" height="50" x="490" y="0" fill="#111"/></g></svg>