<svg xmlns="http://www.w3.org/2000/svg" xmlns:xlink="http://www.w3.org/1999/xlink" width="500" height="50" version="1.1"><g><rect width="5" height="50" x="0" y="0" fill="#b4aa79"/><rect width="5" height="50" x="5" y="0" fill="#cca375"/><rect width="5" height="50" x="10" y="0" fill="#cc9c72"/><rect width="5" height="50" x="15" y="0" fill="#b69867"/><rect width="5" height="50" x="20" y="0" fill="#a28f53"/><rect width="5" height="50" x="25" y="0" fill="#948351"/><rect width="5" height="50" x="30" y="0" fill="#8c804e"/><rect width="5" height="50" x="35" y="0" fill="#8a814d"/><rect width="5" height="50" x="40" y="0" fill="#897e4b"/><rect width="5" height="50" x="45" y="0" fill="#85784d"/><rect width="5" height="50" x="50" y="0" fill="#776e38"/><rect width="5" height="50" x="55" y="0" fill="#706a36"/><rect width="5" height="50" x="60" y="0" fill="#82613e"/><rect width="5" height="50" x="65" y="0" fill="#686435"/><rect width="5" height="50" x="70" y="0" fill="#6d5b2f"/><rect width="5" height="50" x="75" y="0" fill="#6f5a31"/><rect width="5" height="50" x="80" y="0" fill="#6d5d25"/><rect width="5" height="50" x="85" y="0" fill="#76552a"/><rect width="5" height="50" x="90" y="0" fill="#6c5625"/><rect width="5" height="50" x="95" y="0" fill="#605527"/><rect width="5" height="50" x="100" y="0" fill="#5e4b25"/><rect width="5" height="50" x="105" y="0" fill="#5d4722"/><rect width="5" height="50" x="110" y="0" fill="#68b6ba"/><rect width="5" height="50" x="115" y="0" fill="#59b5b6"/><rect width="5" height="50" x="120" y="0" fill="#67ae96"/><rect width="5" height="50" x="125" y="0" fill="#61ab9e"/><rect width="5" height="50" x="130" y="0" fill="#55b49a"/><rect width="5" height="50" x="135" y="0" fill="#4daeab"/><rect width="5" height="50" x="140" y="0" fill="#3ca8a6"/><rect width="5" height="50" x="145" y="0" fill="#46a790"/><rect width="5" height="50" x="150" y="0" fill="#51a28b"/><rect width="5" height="50" x="155" y="0" fill="#589a83"/><rect width="5" height="50" x="160" y="0" fill="#439f8f"/><rect width="5" height="50" x="165" y="0" fill="#419993"/><rect width="5" height="50" x="170" y="0" fill="#458a73"/><rect width="5" height="50" x="175" y="0" fill="#129087"/><rect width="5" height="50" x="180" y="0" fill="#10807a"/><rect width="5" height="50" x="185" y="0" fill="#297f6e"/><rect width="5" height="50" x="190" y="0" fill="#008271"/><rect width="5" height="50" x="195" y="0" fill="#007e78"/><rect width="5" height="50" x="200" y="0" fill="#006d70"/><rect width="5" height="50" x="205" y="0" fill="#00665f"/><rect width="5" height="50" x="210" y="0" fill="#00585b"/><rect width="5" height="50" x="215" y="0" fill="#005a4d"/><rect width="5" height="50" x="220" y="0" fill="#e19496"/><rect width="5" height="50" x="225" y="0" fill="#d19196"/><rect width="5" height="50" x="230" y="0" fill="#de92a3"/><rect width="5" height="50" x="235" y="0" fill="#dc8da3"/><rect width="5" height="50" x="240" y="0" fill="#da8da1"/><rect width="5" height="50" x="245" y="0" fill="#c88287"/><rect width="5" height="50" x="250" y="0" fill="#c67f82"/><rect width="5" height="50" x="255" y="0" fill="#c37d8a"/><rect width="5" height="50" x="260" y="0" fill="#ca7c91"/><rect width="5" height="50" x="265" y="0" fill="#ca797e"/><rect width="5" height="50" x="270" y="0" fill="#b6798d"/><rect width="5" height="50" x="275" y="0" fill="#c17593"/><rect width="5" height="50" x="280" y="0" fill="#bf7286"/><rect width="5" height="50" x="285" y="0" fill="#b7717c"/><rect width="5" height="50" x="290" y="0" fill="#a6617b"/><rect width="5" height="50" x="295" y="0" fill="#a35b70"/><rect width="5" height="50" x="300" y="0" fill="#a25963"/><rect width="5" height="50" x="305" y="0" fill="#914f6a"/><rect width="5" height="50" x="310" y="0" fill="#934851"/><rect width="5" height="50" x="315" y="0" fill="#86474a"/><rect width="5" height="50" x="320" y="0" fill="#77414e"/><rect width="5" height="50" x="325" y="0" fill="#763437"/><rect width="5" height="50" x="330" y="0" fill="#595959"/><rect width="5" height="50" x="335" y="0" fill="#585858"/><rect width="5" height="50" x="340" y="0" fill="#535353"/><rect width="5" height="50" x="345" y="0" fill="#4e4e4e"/><rect width="5" height="50" x="350" y="0" fill="#4b4b4b"/><rect width="5" height="50" x="355" y="0" fill="#4b4b4b"/><rect width="5" height="50" x="360" y="0" fill="#4a4a4a"/><rect width="5" height="50" x="365" y="0" fill="#4a4a4a"/><rect width="5" height="50" x="370" y="0" fill="#434343"/><rect width="5" height="50" x="375" y="0" fill="#424242"/><rect width="5" height="50" x="380" y="0" fill="#404040"/><rect width="5" height="50" x="385" y="0" fill="#fbfbfb"/><rect width="5" height="50" x="390" y="0" fill="#f4f4f4"/><rect width="5" height="50" x="395" y="0" fill="#e7e7e7"/><rect width="5" height="50" x="400" y="0" fill="#e7e7e7"/><rect width="5" height="50" x="405" y="0" fill="#5d5d5d"/><rect width="5" height="50" x="410" y="0" fill="#595959"/><rect width="5" height="50" x="415" y="0" fill="#515151"/><rect width="5" height="50" x="420" y="0" fill="#4e4e4e"/><rect width="5" height="50" x="425" y="0" fill="#4c4c4c"/><rect width="5" height="50" x="430" y="0" fill="#484848"/><rect width="5" height="50" x="435" y="0" fill="#3f3f3f"/><rect width="5" height="50" x="440" y="0" fill="#fff"/><rect width="5" height="50" x="445" y="0" fill="#fefefe"/><rect width="5" height="50" x="450" y="0" fill="#fdfdfd"/><rect width="5" height="50" x="455" y="0" fill="#fbfbfb"/><rect width="5" height="50" x="460" y="0" fill="#fafafa"/><rect width="5" height="50" x="465" y="0" fill="#f6f6f6"/><rect width="5" height="50" x="470" y="0" fill="#f4f4f4"/><rect width="5" height="50" x="475" y="0" fill="#f2f2f2"/><rect width="5" height="50" x="480" y="0" fill="#f0f0f0"/><rect width="5" height="50" x="485" y="0" fill="#ebebeb"/><rect width="5" height="50" x="490" y="0" fill="#e8e8e8"/></g></svg>