<svg xmlns="http://www.w3.org/2000/svg" xmlns:xlink="http://www.w3.org/1999/xlink" width="318" height="263.33" version="1.1"><g transform="translate(24 24)"><circle cx="0" cy="0" r="24" fill="#1f2844"/><circle cx="53" cy="0" r="24" fill="#556881"/><circle cx="106" cy="0" r="24" fill="#7f411d"/><circle cx="159" cy="0" r="24" fill="#f66811"/><circle cx="212" cy="0" r="24" fill="#e9a371"/><circle cx="265" cy="0" r="24" fill="#fbf4e1"/></g><g transform="translate(0 53)"><rect width="102.67" height="102.67" x="0" y="0" fill="#1f2844"/><circle cx="30.8" cy="25.67" r="20.53" fill="#556881"/><circle cx="61.6" cy="46.2" r="30.8" fill="#7f411d"/><circle cx="35.93" cy="71.87" r="25.67" fill="#f66811"/><circle cx="71.87" cy="71.87" r="20.53" fill="#e9a371"/><circle cx="61.6" cy="51.33" r="12.83" fill="#fbf4e1"/></g><g transform="translate(107.67 53)"><rect width="102.67" height="102.67" x="0" y="0" fill="#556881"/><circle cx="30.8" cy="25.67" r="20.53" fill="#7f411d"/><circle cx="61.6" cy="46.2" r="30.8" fill="#f66811"/><circle cx="35.93" cy="71.87" r="25.67" fill="#e9a371"/><circle cx="71.87" cy="71.87" r="20.53" fill="#fbf4e1"/><circle cx="61.6" cy="51.33" r="12.83" fill="#1f2844"/></g><g transform="translate(215.33 53)"><rect width="102.67" height="102.67" x="0" y="0" fill="#7f411d"/><circle cx="30.8" cy="25.67" r="20.53" fill="#f66811"/><circle cx="61.6" cy="46.2" r="30.8" fill="#e9a371"/><circle cx="35.93" cy="71.87" r="25.67" fill="#fbf4e1"/><circle cx="71.87" cy="71.87" r="20.53" fill="#1f2844"/><circle cx="61.6" cy="51.33" r="12.83" fill="#556881"/></g><g transform="translate(0 160.67)"><rect width="102.67" height="102.67" x="0" y="0" fill="#f66811"/><circle cx="30.8" cy="25.67" r="20.53" fill="#e9a371"/><circle cx="61.6" cy="46.2" r="30.8" fill="#fbf4e1"/><circle cx="35.93" cy="71.87" r="25.67" fill="#1f2844"/><circle cx="71.87" cy="71.87" r="20.53" fill="#556881"/><circle cx="61.6" cy="51.33" r="12.83" fill="#7f411d"/></g><g transform="translate(107.67 160.67)"><rect width="102.67" height="102.67" x="0" y="0" fill="#e9a371"/><circle cx="30.8" cy="25.67" r="20.53" fill="#fbf4e1"/><circle cx="61.6" cy="46.2" r="30.8" fill="#1f2844"/><circle cx="35.93" cy="71.87" r="25.67" fill="#556881"/><circle cx="71.87" cy="71.87" r="20.53" fill="#7f411d"/><circle cx="61.6" cy="51.33" r="12.83" fill="#f66811"/></g><g transform="translate(215.33 160.67)"><rect width="102.67" height="102.67" x="0" y="0" fill="#fbf4e1"/><circle cx="30.8" cy="25.67" r="20.53" fill="#1f2844"/><circle cx="61.6" cy="46.2" r="30.8" fill="#556881"/><circle cx="35.93" cy="71.87" r="25.67" fill="#7f411d"/><circle cx="71.87" cy="71.87" r="20.53" fill="#f66811"/><circle cx="61.6" cy="51.33" r="12.83" fill="#e9a371"/></g></svg>