<svg xmlns="http://www.w3.org/2000/svg" xmlns:xlink="http://www.w3.org/1999/xlink" width="318" height="263.33" version="1.1"><g transform="translate(24 24)"><circle cx="0" cy="0" r="24" fill="#f2b93a"/><circle cx="53" cy="0" r="24" fill="#494f31"/><circle cx="106" cy="0" r="24" fill="#01596e"/><circle cx="159" cy="0" r="24" fill="#cfd4f4"/><circle cx="212" cy="0" r="24" fill="#ba78d4"/><circle cx="265" cy="0" r="24" fill="#d802b8"/></g><g transform="translate(0 53)"><rect width="102.67" height="102.67" x="0" y="0" fill="#f2b93a"/><circle cx="30.8" cy="25.67" r="20.53" fill="#494f31"/><circle cx="61.6" cy="46.2" r="30.8" fill="#01596e"/><circle cx="35.93" cy="71.87" r="25.67" fill="#cfd4f4"/><circle cx="71.87" cy="71.87" r="20.53" fill="#ba78d4"/><circle cx="61.6" cy="51.33" r="12.83" fill="#d802b8"/></g><g transform="translate(107.67 53)"><rect width="102.67" height="102.67" x="0" y="0" fill="#494f31"/><circle cx="30.8" cy="25.67" r="20.53" fill="#01596e"/><circle cx="61.6" cy="46.2" r="30.8" fill="#cfd4f4"/><circle cx="35.93" cy="71.87" r="25.67" fill="#ba78d4"/><circle cx="71.87" cy="71.87" r="20.53" fill="#d802b8"/><circle cx="61.6" cy="51.33" r="12.83" fill="#f2b93a"/></g><g transform="translate(215.33 53)"><rect width="102.67" height="102.67" x="0" y="0" fill="#01596e"/><circle cx="30.8" cy="25.67" r="20.53" fill="#cfd4f4"/><circle cx="61.6" cy="46.2" r="30.8" fill="#ba78d4"/><circle cx="35.93" cy="71.87" r="25.67" fill="#d802b8"/><circle cx="71.87" cy="71.87" r="20.53" fill="#f2b93a"/><circle cx="61.6" cy="51.33" r="12.83" fill="#494f31"/></g><g transform="translate(0 160.67)"><rect width="102.67" height="102.67" x="0" y="0" fill="#cfd4f4"/><circle cx="30.8" cy="25.67" r="20.53" fill="#ba78d4"/><circle cx="61.6" cy="46.2" r="30.8" fill="#d802b8"/><circle cx="35.93" cy="71.87" r="25.67" fill="#f2b93a"/><circle cx="71.87" cy="71.87" r="20.53" fill="#494f31"/><circle cx="61.6" cy="51.33" r="12.83" fill="#01596e"/></g><g transform="translate(107.67 160.67)"><rect width="102.67" height="102.67" x="0" y="0" fill="#ba78d4"/><circle cx="30.8" cy="25.67" r="20.53" fill="#d802b8"/><circle cx="61.6" cy="46.2" r="30.8" fill="#f2b93a"/><circle cx="35.93" cy="71.87" r="25.67" fill="#494f31"/><circle cx="71.87" cy="71.87" r="20.53" fill="#01596e"/><circle cx="61.6" cy="51.33" r="12.83" fill="#cfd4f4"/></g><g transform="translate(215.33 160.67)"><rect width="102.67" height="102.67" x="0" y="0" fill="#d802b8"/><circle cx="30.8" cy="25.67" r="20.53" fill="#f2b93a"/><circle cx="61.6" cy="46.2" r="30.8" fill="#494f31"/><circle cx="35.93" cy="71.87" r="25.67" fill="#01596e"/><circle cx="71.87" cy="71.87" r="20.53" fill="#cfd4f4"/><circle cx="61.6" cy="51.33" r="12.83" fill="#ba78d4"/></g></svg>