<svg xmlns="http://www.w3.org/2000/svg" xmlns:xlink="http://www.w3.org/1999/xlink" width="318" height="263.33" version="1.1"><g transform="translate(24 24)"><circle cx="0" cy="0" r="24" fill="#396574"/><circle cx="53" cy="0" r="24" fill="#9bbed2"/><circle cx="106" cy="0" r="24" fill="#cfcfcd"/><circle cx="159" cy="0" r="24" fill="#ac938e"/><circle cx="212" cy="0" r="24" fill="#e82f36"/><circle cx="265" cy="0" r="24" fill="#d9d447"/></g><g transform="translate(0 53)"><rect width="102.67" height="102.67" x="0" y="0" fill="#396574"/><circle cx="30.8" cy="25.67" r="20.53" fill="#9bbed2"/><circle cx="61.6" cy="46.2" r="30.8" fill="#cfcfcd"/><circle cx="35.93" cy="71.87" r="25.67" fill="#ac938e"/><circle cx="71.87" cy="71.87" r="20.53" fill="#e82f36"/><circle cx="61.6" cy="51.33" r="12.83" fill="#d9d447"/></g><g transform="translate(107.67 53)"><rect width="102.67" height="102.67" x="0" y="0" fill="#9bbed2"/><circle cx="30.8" cy="25.67" r="20.53" fill="#cfcfcd"/><circle cx="61.6" cy="46.2" r="30.8" fill="#ac938e"/><circle cx="35.93" cy="71.87" r="25.67" fill="#e82f36"/><circle cx="71.87" cy="71.87" r="20.53" fill="#d9d447"/><circle cx="61.6" cy="51.33" r="12.83" fill="#396574"/></g><g transform="translate(215.33 53)"><rect width="102.67" height="102.67" x="0" y="0" fill="#cfcfcd"/><circle cx="30.8" cy="25.67" r="20.53" fill="#ac938e"/><circle cx="61.6" cy="46.2" r="30.8" fill="#e82f36"/><circle cx="35.93" cy="71.87" r="25.67" fill="#d9d447"/><circle cx="71.87" cy="71.87" r="20.53" fill="#396574"/><circle cx="61.6" cy="51.33" r="12.83" fill="#9bbed2"/></g><g transform="translate(0 160.67)"><rect width="102.67" height="102.67" x="0" y="0" fill="#ac938e"/><circle cx="30.8" cy="25.67" r="20.53" fill="#e82f36"/><circle cx="61.6" cy="46.2" r="30.8" fill="#d9d447"/><circle cx="35.93" cy="71.87" r="25.67" fill="#396574"/><circle cx="71.87" cy="71.87" r="20.53" fill="#9bbed2"/><circle cx="61.6" cy="51.33" r="12.83" fill="#cfcfcd"/></g><g transform="translate(107.67 160.67)"><rect width="102.67" height="102.67" x="0" y="0" fill="#e82f36"/><circle cx="30.8" cy="25.67" r="20.53" fill="#d9d447"/><circle cx="61.6" cy="46.2" r="30.8" fill="#396574"/><circle cx="35.93" cy="71.87" r="25.67" fill="#9bbed2"/><circle cx="71.87" cy="71.87" r="20.53" fill="#cfcfcd"/><circle cx="61.6" cy="51.33" r="12.83" fill="#ac938e"/></g><g transform="translate(215.33 160.67)"><rect width="102.67" height="102.67" x="0" y="0" fill="#d9d447"/><circle cx="30.8" cy="25.67" r="20.53" fill="#396574"/><circle cx="61.6" cy="46.2" r="30.8" fill="#9bbed2"/><circle cx="35.93" cy="71.87" r="25.67" fill="#cfcfcd"/><circle cx="71.87" cy="71.87" r="20.53" fill="#ac938e"/><circle cx="61.6" cy="51.33" r="12.83" fill="#e82f36"/></g></svg>